<?xml version="1.0"?>
<!DOCTYPE lmms-project>
<lmms-project version="1.0" creator="LMMS" creatorversion="1.1.3" type="song">
  <head timesig_numerator="4" timesig_denominator="4" bpm="140" masterpitch="0">
    <mastervol scale_type="linear" value="6" id="5950724"/>
  </head>
  <song>
    <trackcontainer width="1270" x="0" y="0" maximized="1" height="622" visible="1" type="song" minimized="0">
      <track muted="0" type="0" name="TripleOscillator" solo="0">
        <instrumenttrack pan="0" fxch="0" pitchrange="1" pitch="0" basenote="57" vol="100">
          <instrument name="tripleoscillator">
            <tripleoscillator phoffset2="0" userwavefile0="" finer0="0" userwavefile1="" finer1="0" userwavefile2="" finer2="0" coarse0="0" coarse1="-12" coarse2="-24" finel0="0" finel1="0" modalgo1="2" modalgo2="2" finel2="0" pan0="0" modalgo3="2" pan1="0" stphdetun0="0" pan2="0" stphdetun1="0" wavetype0="5" stphdetun2="0" wavetype1="3" wavetype2="1" vol0="33" vol1="33" phoffset0="0" phoffset1="0" vol2="33"/>
          </instrument>
          <eldata fres="0.5" ftype="0" fwet="1">
            <fcut scale_type="linear" value="14000" id="108262"/>
            <elvol lspd_denominator="4" sustain="0.5" pdel="0" userwavefile="" dec="0.5" lamt="0" syncmode="0" latt="0" rel="0.1" amt="0" x100="0" att="0" lpdel="0" hold="0.5" lshp="0" lspd="0.1" ctlenvamt="0" lspd_numerator="4"/>
            <elcut lspd_denominator="4" sustain="0.5" pdel="0" userwavefile="" dec="0.5" lamt="0" syncmode="0" latt="0" rel="0.1" amt="0" x100="0" att="0" lpdel="0" hold="0.5" lshp="0" lspd="0.1" ctlenvamt="0" lspd_numerator="4"/>
            <elres lspd_denominator="4" sustain="0.5" pdel="0" userwavefile="" dec="0.5" lamt="0" syncmode="0" latt="0" rel="0.1" amt="0" x100="0" att="0" lpdel="0" hold="0.5" lshp="0" lspd="0.1" ctlenvamt="0" lspd_numerator="4"/>
          </eldata>
          <chordcreator chord="0" chordrange="1" chord-enabled="0"/>
          <arpeggiator arptime="100" arprange="1" arptime_denominator="4" syncmode="0" arpmode="0" arp-enabled="0" arp="0" arptime_numerator="4" arpdir="0" arpgate="100"/>
          <midiport inputcontroller="0" fixedoutputvelocity="-1" inputchannel="0" outputcontroller="0" writable="0" outputchannel="1" fixedinputvelocity="-1" fixedoutputnote="-1" outputprogram="1" basevelocity="63" readable="0"/>
          <fxchain numofeffects="0" enabled="0"/>
        </instrumenttrack>
        <pattern steps="16" muted="0" type="1" name="TripleOscillator" pos="0" len="768">
          <note pan="0" key="40" vol="100" pos="0" len="24"/>
          <note pan="0" key="40" vol="100" pos="24" len="24"/>
          <note pan="0" key="40" vol="100" pos="48" len="24"/>
          <note pan="0" key="40" vol="100" pos="72" len="24"/>
          <note pan="0" key="40" vol="100" pos="96" len="24"/>
          <note pan="0" key="40" vol="100" pos="120" len="24"/>
          <note pan="0" key="40" vol="100" pos="144" len="24"/>
          <note pan="0" key="40" vol="100" pos="168" len="24"/>
          <note pan="0" key="48" vol="100" pos="192" len="192"/>
          <note pan="0" key="36" vol="100" pos="192" len="24"/>
          <note pan="0" key="36" vol="100" pos="216" len="24"/>
          <note pan="0" key="36" vol="100" pos="240" len="24"/>
          <note pan="0" key="36" vol="100" pos="264" len="24"/>
          <note pan="0" key="36" vol="100" pos="288" len="24"/>
          <note pan="0" key="36" vol="100" pos="312" len="24"/>
          <note pan="0" key="36" vol="100" pos="336" len="24"/>
          <note pan="0" key="36" vol="100" pos="360" len="24"/>
          <note pan="0" key="31" vol="100" pos="384" len="24"/>
          <note pan="0" key="31" vol="100" pos="408" len="24"/>
          <note pan="0" key="31" vol="100" pos="432" len="24"/>
          <note pan="0" key="31" vol="100" pos="456" len="24"/>
          <note pan="0" key="31" vol="100" pos="480" len="24"/>
          <note pan="0" key="31" vol="100" pos="504" len="24"/>
          <note pan="0" key="31" vol="100" pos="528" len="24"/>
          <note pan="0" key="31" vol="100" pos="552" len="24"/>
          <note pan="0" key="26" vol="100" pos="576" len="24"/>
          <note pan="0" key="45" vol="100" pos="576" len="192"/>
          <note pan="0" key="26" vol="100" pos="600" len="24"/>
          <note pan="0" key="26" vol="100" pos="624" len="24"/>
          <note pan="0" key="26" vol="100" pos="648" len="24"/>
          <note pan="0" key="26" vol="100" pos="672" len="24"/>
          <note pan="0" key="26" vol="100" pos="696" len="24"/>
          <note pan="0" key="26" vol="100" pos="720" len="24"/>
          <note pan="0" key="26" vol="100" pos="744" len="24"/>
        </pattern>
        <pattern steps="16" muted="0" type="1" name="TripleOscillator" pos="768" len="768">
          <note pan="0" key="40" vol="100" pos="0" len="24"/>
          <note pan="0" key="40" vol="100" pos="24" len="24"/>
          <note pan="0" key="40" vol="100" pos="48" len="24"/>
          <note pan="0" key="40" vol="100" pos="72" len="24"/>
          <note pan="0" key="40" vol="100" pos="96" len="24"/>
          <note pan="0" key="40" vol="100" pos="120" len="24"/>
          <note pan="0" key="40" vol="100" pos="144" len="24"/>
          <note pan="0" key="40" vol="100" pos="168" len="24"/>
          <note pan="0" key="48" vol="100" pos="192" len="192"/>
          <note pan="0" key="36" vol="100" pos="192" len="24"/>
          <note pan="0" key="36" vol="100" pos="216" len="24"/>
          <note pan="0" key="36" vol="100" pos="240" len="24"/>
          <note pan="0" key="36" vol="100" pos="264" len="24"/>
          <note pan="0" key="36" vol="100" pos="288" len="24"/>
          <note pan="0" key="36" vol="100" pos="312" len="24"/>
          <note pan="0" key="36" vol="100" pos="336" len="24"/>
          <note pan="0" key="36" vol="100" pos="360" len="24"/>
          <note pan="0" key="31" vol="100" pos="384" len="24"/>
          <note pan="0" key="31" vol="100" pos="408" len="24"/>
          <note pan="0" key="31" vol="100" pos="432" len="24"/>
          <note pan="0" key="31" vol="100" pos="456" len="24"/>
          <note pan="0" key="31" vol="100" pos="480" len="24"/>
          <note pan="0" key="31" vol="100" pos="504" len="24"/>
          <note pan="0" key="31" vol="100" pos="528" len="24"/>
          <note pan="0" key="31" vol="100" pos="552" len="24"/>
          <note pan="0" key="26" vol="100" pos="576" len="24"/>
          <note pan="0" key="45" vol="100" pos="576" len="192"/>
          <note pan="0" key="26" vol="100" pos="600" len="24"/>
          <note pan="0" key="26" vol="100" pos="624" len="24"/>
          <note pan="0" key="26" vol="100" pos="648" len="24"/>
          <note pan="0" key="26" vol="100" pos="672" len="24"/>
          <note pan="0" key="26" vol="100" pos="696" len="24"/>
          <note pan="0" key="26" vol="100" pos="720" len="24"/>
          <note pan="0" key="26" vol="100" pos="744" len="24"/>
        </pattern>
        <pattern steps="16" muted="0" type="1" name="TripleOscillator" pos="1536" len="768">
          <note pan="0" key="40" vol="100" pos="0" len="24"/>
          <note pan="0" key="40" vol="100" pos="24" len="24"/>
          <note pan="0" key="40" vol="100" pos="48" len="24"/>
          <note pan="0" key="40" vol="100" pos="72" len="24"/>
          <note pan="0" key="40" vol="100" pos="96" len="24"/>
          <note pan="0" key="40" vol="100" pos="120" len="24"/>
          <note pan="0" key="40" vol="100" pos="144" len="24"/>
          <note pan="0" key="40" vol="100" pos="168" len="24"/>
          <note pan="0" key="48" vol="100" pos="192" len="192"/>
          <note pan="0" key="36" vol="100" pos="192" len="24"/>
          <note pan="0" key="36" vol="100" pos="216" len="24"/>
          <note pan="0" key="36" vol="100" pos="240" len="24"/>
          <note pan="0" key="36" vol="100" pos="264" len="24"/>
          <note pan="0" key="36" vol="100" pos="288" len="24"/>
          <note pan="0" key="36" vol="100" pos="312" len="24"/>
          <note pan="0" key="36" vol="100" pos="336" len="24"/>
          <note pan="0" key="36" vol="100" pos="360" len="24"/>
          <note pan="0" key="31" vol="100" pos="384" len="24"/>
          <note pan="0" key="31" vol="100" pos="408" len="24"/>
          <note pan="0" key="31" vol="100" pos="432" len="24"/>
          <note pan="0" key="31" vol="100" pos="456" len="24"/>
          <note pan="0" key="31" vol="100" pos="480" len="24"/>
          <note pan="0" key="31" vol="100" pos="504" len="24"/>
          <note pan="0" key="31" vol="100" pos="528" len="24"/>
          <note pan="0" key="31" vol="100" pos="552" len="24"/>
          <note pan="0" key="26" vol="100" pos="576" len="24"/>
          <note pan="0" key="45" vol="100" pos="576" len="192"/>
          <note pan="0" key="26" vol="100" pos="600" len="24"/>
          <note pan="0" key="26" vol="100" pos="624" len="24"/>
          <note pan="0" key="26" vol="100" pos="648" len="24"/>
          <note pan="0" key="26" vol="100" pos="672" len="24"/>
          <note pan="0" key="26" vol="100" pos="696" len="24"/>
          <note pan="0" key="26" vol="100" pos="720" len="24"/>
          <note pan="0" key="26" vol="100" pos="744" len="24"/>
        </pattern>
        <pattern steps="16" muted="0" type="1" name="TripleOscillator" pos="2304" len="768">
          <note pan="0" key="40" vol="100" pos="0" len="24"/>
          <note pan="0" key="40" vol="100" pos="24" len="24"/>
          <note pan="0" key="40" vol="100" pos="48" len="24"/>
          <note pan="0" key="40" vol="100" pos="72" len="24"/>
          <note pan="0" key="40" vol="100" pos="96" len="24"/>
          <note pan="0" key="40" vol="100" pos="120" len="24"/>
          <note pan="0" key="40" vol="100" pos="144" len="24"/>
          <note pan="0" key="40" vol="100" pos="168" len="24"/>
          <note pan="0" key="48" vol="100" pos="192" len="192"/>
          <note pan="0" key="36" vol="100" pos="192" len="24"/>
          <note pan="0" key="36" vol="100" pos="216" len="24"/>
          <note pan="0" key="36" vol="100" pos="240" len="24"/>
          <note pan="0" key="36" vol="100" pos="264" len="24"/>
          <note pan="0" key="36" vol="100" pos="288" len="24"/>
          <note pan="0" key="36" vol="100" pos="312" len="24"/>
          <note pan="0" key="36" vol="100" pos="336" len="24"/>
          <note pan="0" key="36" vol="100" pos="360" len="24"/>
          <note pan="0" key="31" vol="100" pos="384" len="24"/>
          <note pan="0" key="31" vol="100" pos="408" len="24"/>
          <note pan="0" key="31" vol="100" pos="432" len="24"/>
          <note pan="0" key="31" vol="100" pos="456" len="24"/>
          <note pan="0" key="31" vol="100" pos="480" len="24"/>
          <note pan="0" key="31" vol="100" pos="504" len="24"/>
          <note pan="0" key="31" vol="100" pos="528" len="24"/>
          <note pan="0" key="31" vol="100" pos="552" len="24"/>
          <note pan="0" key="26" vol="100" pos="576" len="24"/>
          <note pan="0" key="45" vol="100" pos="576" len="192"/>
          <note pan="0" key="26" vol="100" pos="600" len="24"/>
          <note pan="0" key="26" vol="100" pos="624" len="24"/>
          <note pan="0" key="26" vol="100" pos="648" len="24"/>
          <note pan="0" key="26" vol="100" pos="672" len="24"/>
          <note pan="0" key="26" vol="100" pos="696" len="24"/>
          <note pan="0" key="26" vol="100" pos="720" len="24"/>
          <note pan="0" key="26" vol="100" pos="744" len="24"/>
        </pattern>
        <pattern steps="16" muted="0" type="1" name="TripleOscillator" pos="3072" len="768">
          <note pan="0" key="40" vol="100" pos="0" len="24"/>
          <note pan="0" key="40" vol="100" pos="24" len="24"/>
          <note pan="0" key="40" vol="100" pos="48" len="24"/>
          <note pan="0" key="40" vol="100" pos="72" len="24"/>
          <note pan="0" key="40" vol="100" pos="96" len="24"/>
          <note pan="0" key="40" vol="100" pos="120" len="24"/>
          <note pan="0" key="40" vol="100" pos="144" len="24"/>
          <note pan="0" key="40" vol="100" pos="168" len="24"/>
          <note pan="0" key="48" vol="100" pos="192" len="192"/>
          <note pan="0" key="36" vol="100" pos="192" len="24"/>
          <note pan="0" key="36" vol="100" pos="216" len="24"/>
          <note pan="0" key="36" vol="100" pos="240" len="24"/>
          <note pan="0" key="36" vol="100" pos="264" len="24"/>
          <note pan="0" key="36" vol="100" pos="288" len="24"/>
          <note pan="0" key="36" vol="100" pos="312" len="24"/>
          <note pan="0" key="36" vol="100" pos="336" len="24"/>
          <note pan="0" key="36" vol="100" pos="360" len="24"/>
          <note pan="0" key="31" vol="100" pos="384" len="24"/>
          <note pan="0" key="31" vol="100" pos="408" len="24"/>
          <note pan="0" key="31" vol="100" pos="432" len="24"/>
          <note pan="0" key="31" vol="100" pos="456" len="24"/>
          <note pan="0" key="31" vol="100" pos="480" len="24"/>
          <note pan="0" key="31" vol="100" pos="504" len="24"/>
          <note pan="0" key="31" vol="100" pos="528" len="24"/>
          <note pan="0" key="31" vol="100" pos="552" len="24"/>
          <note pan="0" key="26" vol="100" pos="576" len="24"/>
          <note pan="0" key="45" vol="100" pos="576" len="192"/>
          <note pan="0" key="26" vol="100" pos="600" len="24"/>
          <note pan="0" key="26" vol="100" pos="624" len="24"/>
          <note pan="0" key="26" vol="100" pos="648" len="24"/>
          <note pan="0" key="26" vol="100" pos="672" len="24"/>
          <note pan="0" key="26" vol="100" pos="696" len="24"/>
          <note pan="0" key="26" vol="100" pos="720" len="24"/>
          <note pan="0" key="26" vol="100" pos="744" len="24"/>
        </pattern>
        <pattern steps="16" muted="0" type="1" name="TripleOscillator" pos="3840" len="768">
          <note pan="0" key="40" vol="100" pos="0" len="24"/>
          <note pan="0" key="40" vol="100" pos="24" len="24"/>
          <note pan="0" key="40" vol="100" pos="48" len="24"/>
          <note pan="0" key="40" vol="100" pos="72" len="24"/>
          <note pan="0" key="40" vol="100" pos="96" len="24"/>
          <note pan="0" key="40" vol="100" pos="120" len="24"/>
          <note pan="0" key="40" vol="100" pos="144" len="24"/>
          <note pan="0" key="40" vol="100" pos="168" len="24"/>
          <note pan="0" key="48" vol="100" pos="192" len="192"/>
          <note pan="0" key="36" vol="100" pos="192" len="24"/>
          <note pan="0" key="36" vol="100" pos="216" len="24"/>
          <note pan="0" key="36" vol="100" pos="240" len="24"/>
          <note pan="0" key="36" vol="100" pos="264" len="24"/>
          <note pan="0" key="36" vol="100" pos="288" len="24"/>
          <note pan="0" key="36" vol="100" pos="312" len="24"/>
          <note pan="0" key="36" vol="100" pos="336" len="24"/>
          <note pan="0" key="36" vol="100" pos="360" len="24"/>
          <note pan="0" key="31" vol="100" pos="384" len="24"/>
          <note pan="0" key="31" vol="100" pos="408" len="24"/>
          <note pan="0" key="31" vol="100" pos="432" len="24"/>
          <note pan="0" key="31" vol="100" pos="456" len="24"/>
          <note pan="0" key="31" vol="100" pos="480" len="24"/>
          <note pan="0" key="31" vol="100" pos="504" len="24"/>
          <note pan="0" key="31" vol="100" pos="528" len="24"/>
          <note pan="0" key="31" vol="100" pos="552" len="24"/>
          <note pan="0" key="26" vol="100" pos="576" len="24"/>
          <note pan="0" key="45" vol="100" pos="576" len="192"/>
          <note pan="0" key="26" vol="100" pos="600" len="24"/>
          <note pan="0" key="26" vol="100" pos="624" len="24"/>
          <note pan="0" key="26" vol="100" pos="648" len="24"/>
          <note pan="0" key="26" vol="100" pos="672" len="24"/>
          <note pan="0" key="26" vol="100" pos="696" len="24"/>
          <note pan="0" key="26" vol="100" pos="720" len="24"/>
          <note pan="0" key="26" vol="100" pos="744" len="24"/>
        </pattern>
        <pattern steps="16" muted="0" type="1" name="TripleOscillator" pos="4608" len="768">
          <note pan="0" key="40" vol="100" pos="0" len="24"/>
          <note pan="0" key="40" vol="100" pos="24" len="24"/>
          <note pan="0" key="40" vol="100" pos="48" len="24"/>
          <note pan="0" key="40" vol="100" pos="72" len="24"/>
          <note pan="0" key="40" vol="100" pos="96" len="24"/>
          <note pan="0" key="40" vol="100" pos="120" len="24"/>
          <note pan="0" key="40" vol="100" pos="144" len="24"/>
          <note pan="0" key="40" vol="100" pos="168" len="24"/>
          <note pan="0" key="48" vol="100" pos="192" len="192"/>
          <note pan="0" key="36" vol="100" pos="192" len="24"/>
          <note pan="0" key="36" vol="100" pos="216" len="24"/>
          <note pan="0" key="36" vol="100" pos="240" len="24"/>
          <note pan="0" key="36" vol="100" pos="264" len="24"/>
          <note pan="0" key="36" vol="100" pos="288" len="24"/>
          <note pan="0" key="36" vol="100" pos="312" len="24"/>
          <note pan="0" key="36" vol="100" pos="336" len="24"/>
          <note pan="0" key="36" vol="100" pos="360" len="24"/>
          <note pan="0" key="31" vol="100" pos="384" len="24"/>
          <note pan="0" key="31" vol="100" pos="408" len="24"/>
          <note pan="0" key="31" vol="100" pos="432" len="24"/>
          <note pan="0" key="31" vol="100" pos="456" len="24"/>
          <note pan="0" key="31" vol="100" pos="480" len="24"/>
          <note pan="0" key="31" vol="100" pos="504" len="24"/>
          <note pan="0" key="31" vol="100" pos="528" len="24"/>
          <note pan="0" key="31" vol="100" pos="552" len="24"/>
          <note pan="0" key="26" vol="100" pos="576" len="24"/>
          <note pan="0" key="45" vol="100" pos="576" len="192"/>
          <note pan="0" key="26" vol="100" pos="600" len="24"/>
          <note pan="0" key="26" vol="100" pos="624" len="24"/>
          <note pan="0" key="26" vol="100" pos="648" len="24"/>
          <note pan="0" key="26" vol="100" pos="672" len="24"/>
          <note pan="0" key="26" vol="100" pos="696" len="24"/>
          <note pan="0" key="26" vol="100" pos="720" len="24"/>
          <note pan="0" key="26" vol="100" pos="744" len="24"/>
        </pattern>
        <pattern steps="16" muted="0" type="1" name="TripleOscillator" pos="5376" len="768">
          <note pan="0" key="40" vol="100" pos="0" len="24"/>
          <note pan="0" key="40" vol="100" pos="24" len="24"/>
          <note pan="0" key="40" vol="100" pos="48" len="24"/>
          <note pan="0" key="40" vol="100" pos="72" len="24"/>
          <note pan="0" key="40" vol="100" pos="96" len="24"/>
          <note pan="0" key="40" vol="100" pos="120" len="24"/>
          <note pan="0" key="40" vol="100" pos="144" len="24"/>
          <note pan="0" key="40" vol="100" pos="168" len="24"/>
          <note pan="0" key="48" vol="100" pos="192" len="192"/>
          <note pan="0" key="36" vol="100" pos="192" len="24"/>
          <note pan="0" key="36" vol="100" pos="216" len="24"/>
          <note pan="0" key="36" vol="100" pos="240" len="24"/>
          <note pan="0" key="36" vol="100" pos="264" len="24"/>
          <note pan="0" key="36" vol="100" pos="288" len="24"/>
          <note pan="0" key="36" vol="100" pos="312" len="24"/>
          <note pan="0" key="36" vol="100" pos="336" len="24"/>
          <note pan="0" key="36" vol="100" pos="360" len="24"/>
          <note pan="0" key="31" vol="100" pos="384" len="24"/>
          <note pan="0" key="31" vol="100" pos="408" len="24"/>
          <note pan="0" key="31" vol="100" pos="432" len="24"/>
          <note pan="0" key="31" vol="100" pos="456" len="24"/>
          <note pan="0" key="31" vol="100" pos="480" len="24"/>
          <note pan="0" key="31" vol="100" pos="504" len="24"/>
          <note pan="0" key="31" vol="100" pos="528" len="24"/>
          <note pan="0" key="31" vol="100" pos="552" len="24"/>
          <note pan="0" key="26" vol="100" pos="576" len="24"/>
          <note pan="0" key="45" vol="100" pos="576" len="192"/>
          <note pan="0" key="26" vol="100" pos="600" len="24"/>
          <note pan="0" key="26" vol="100" pos="624" len="24"/>
          <note pan="0" key="26" vol="100" pos="648" len="24"/>
          <note pan="0" key="26" vol="100" pos="672" len="24"/>
          <note pan="0" key="26" vol="100" pos="696" len="24"/>
          <note pan="0" key="26" vol="100" pos="720" len="24"/>
          <note pan="0" key="26" vol="100" pos="744" len="24"/>
        </pattern>
        <pattern steps="16" muted="0" type="1" name="TripleOscillator" pos="6144" len="768">
          <note pan="0" key="40" vol="100" pos="0" len="24"/>
          <note pan="0" key="40" vol="100" pos="24" len="24"/>
          <note pan="0" key="40" vol="100" pos="48" len="24"/>
          <note pan="0" key="40" vol="100" pos="72" len="24"/>
          <note pan="0" key="40" vol="100" pos="96" len="24"/>
          <note pan="0" key="40" vol="100" pos="120" len="24"/>
          <note pan="0" key="40" vol="100" pos="144" len="24"/>
          <note pan="0" key="40" vol="100" pos="168" len="24"/>
          <note pan="0" key="48" vol="100" pos="192" len="192"/>
          <note pan="0" key="36" vol="100" pos="192" len="24"/>
          <note pan="0" key="36" vol="100" pos="216" len="24"/>
          <note pan="0" key="36" vol="100" pos="240" len="24"/>
          <note pan="0" key="36" vol="100" pos="264" len="24"/>
          <note pan="0" key="36" vol="100" pos="288" len="24"/>
          <note pan="0" key="36" vol="100" pos="312" len="24"/>
          <note pan="0" key="36" vol="100" pos="336" len="24"/>
          <note pan="0" key="36" vol="100" pos="360" len="24"/>
          <note pan="0" key="31" vol="100" pos="384" len="24"/>
          <note pan="0" key="31" vol="100" pos="408" len="24"/>
          <note pan="0" key="31" vol="100" pos="432" len="24"/>
          <note pan="0" key="31" vol="100" pos="456" len="24"/>
          <note pan="0" key="31" vol="100" pos="480" len="24"/>
          <note pan="0" key="31" vol="100" pos="504" len="24"/>
          <note pan="0" key="31" vol="100" pos="528" len="24"/>
          <note pan="0" key="31" vol="100" pos="552" len="24"/>
          <note pan="0" key="26" vol="100" pos="576" len="24"/>
          <note pan="0" key="45" vol="100" pos="576" len="192"/>
          <note pan="0" key="26" vol="100" pos="600" len="24"/>
          <note pan="0" key="26" vol="100" pos="624" len="24"/>
          <note pan="0" key="26" vol="100" pos="648" len="24"/>
          <note pan="0" key="26" vol="100" pos="672" len="24"/>
          <note pan="0" key="26" vol="100" pos="696" len="24"/>
          <note pan="0" key="26" vol="100" pos="720" len="24"/>
          <note pan="0" key="26" vol="100" pos="744" len="24"/>
        </pattern>
        <pattern steps="16" muted="0" type="1" name="TripleOscillator" pos="6912" len="768">
          <note pan="0" key="40" vol="100" pos="0" len="24"/>
          <note pan="0" key="40" vol="100" pos="24" len="24"/>
          <note pan="0" key="40" vol="100" pos="48" len="24"/>
          <note pan="0" key="40" vol="100" pos="72" len="24"/>
          <note pan="0" key="40" vol="100" pos="96" len="24"/>
          <note pan="0" key="40" vol="100" pos="120" len="24"/>
          <note pan="0" key="40" vol="100" pos="144" len="24"/>
          <note pan="0" key="40" vol="100" pos="168" len="24"/>
          <note pan="0" key="48" vol="100" pos="192" len="192"/>
          <note pan="0" key="36" vol="100" pos="192" len="24"/>
          <note pan="0" key="36" vol="100" pos="216" len="24"/>
          <note pan="0" key="36" vol="100" pos="240" len="24"/>
          <note pan="0" key="36" vol="100" pos="264" len="24"/>
          <note pan="0" key="36" vol="100" pos="288" len="24"/>
          <note pan="0" key="36" vol="100" pos="312" len="24"/>
          <note pan="0" key="36" vol="100" pos="336" len="24"/>
          <note pan="0" key="36" vol="100" pos="360" len="24"/>
          <note pan="0" key="31" vol="100" pos="384" len="24"/>
          <note pan="0" key="31" vol="100" pos="408" len="24"/>
          <note pan="0" key="31" vol="100" pos="432" len="24"/>
          <note pan="0" key="31" vol="100" pos="456" len="24"/>
          <note pan="0" key="31" vol="100" pos="480" len="24"/>
          <note pan="0" key="31" vol="100" pos="504" len="24"/>
          <note pan="0" key="31" vol="100" pos="528" len="24"/>
          <note pan="0" key="31" vol="100" pos="552" len="24"/>
          <note pan="0" key="26" vol="100" pos="576" len="24"/>
          <note pan="0" key="45" vol="100" pos="576" len="192"/>
          <note pan="0" key="26" vol="100" pos="600" len="24"/>
          <note pan="0" key="26" vol="100" pos="624" len="24"/>
          <note pan="0" key="26" vol="100" pos="648" len="24"/>
          <note pan="0" key="26" vol="100" pos="672" len="24"/>
          <note pan="0" key="26" vol="100" pos="696" len="24"/>
          <note pan="0" key="26" vol="100" pos="720" len="24"/>
          <note pan="0" key="26" vol="100" pos="744" len="24"/>
        </pattern>
        <pattern steps="16" muted="0" type="1" name="TripleOscillator" pos="7680" len="768">
          <note pan="0" key="40" vol="100" pos="0" len="24"/>
          <note pan="0" key="40" vol="100" pos="24" len="24"/>
          <note pan="0" key="40" vol="100" pos="48" len="24"/>
          <note pan="0" key="40" vol="100" pos="72" len="24"/>
          <note pan="0" key="40" vol="100" pos="96" len="24"/>
          <note pan="0" key="40" vol="100" pos="120" len="24"/>
          <note pan="0" key="40" vol="100" pos="144" len="24"/>
          <note pan="0" key="40" vol="100" pos="168" len="24"/>
          <note pan="0" key="48" vol="100" pos="192" len="192"/>
          <note pan="0" key="36" vol="100" pos="192" len="24"/>
          <note pan="0" key="36" vol="100" pos="216" len="24"/>
          <note pan="0" key="36" vol="100" pos="240" len="24"/>
          <note pan="0" key="36" vol="100" pos="264" len="24"/>
          <note pan="0" key="36" vol="100" pos="288" len="24"/>
          <note pan="0" key="36" vol="100" pos="312" len="24"/>
          <note pan="0" key="36" vol="100" pos="336" len="24"/>
          <note pan="0" key="36" vol="100" pos="360" len="24"/>
          <note pan="0" key="31" vol="100" pos="384" len="24"/>
          <note pan="0" key="31" vol="100" pos="408" len="24"/>
          <note pan="0" key="31" vol="100" pos="432" len="24"/>
          <note pan="0" key="31" vol="100" pos="456" len="24"/>
          <note pan="0" key="31" vol="100" pos="480" len="24"/>
          <note pan="0" key="31" vol="100" pos="504" len="24"/>
          <note pan="0" key="31" vol="100" pos="528" len="24"/>
          <note pan="0" key="31" vol="100" pos="552" len="24"/>
          <note pan="0" key="26" vol="100" pos="576" len="24"/>
          <note pan="0" key="45" vol="100" pos="576" len="192"/>
          <note pan="0" key="26" vol="100" pos="600" len="24"/>
          <note pan="0" key="26" vol="100" pos="624" len="24"/>
          <note pan="0" key="26" vol="100" pos="648" len="24"/>
          <note pan="0" key="26" vol="100" pos="672" len="24"/>
          <note pan="0" key="26" vol="100" pos="696" len="24"/>
          <note pan="0" key="26" vol="100" pos="720" len="24"/>
          <note pan="0" key="26" vol="100" pos="744" len="24"/>
        </pattern>
        <pattern steps="16" muted="0" type="1" name="TripleOscillator" pos="8448" len="768">
          <note pan="0" key="40" vol="100" pos="0" len="24"/>
          <note pan="0" key="40" vol="100" pos="24" len="24"/>
          <note pan="0" key="40" vol="100" pos="48" len="24"/>
          <note pan="0" key="40" vol="100" pos="72" len="24"/>
          <note pan="0" key="40" vol="100" pos="96" len="24"/>
          <note pan="0" key="40" vol="100" pos="120" len="24"/>
          <note pan="0" key="40" vol="100" pos="144" len="24"/>
          <note pan="0" key="40" vol="100" pos="168" len="24"/>
          <note pan="0" key="48" vol="100" pos="192" len="192"/>
          <note pan="0" key="36" vol="100" pos="192" len="24"/>
          <note pan="0" key="36" vol="100" pos="216" len="24"/>
          <note pan="0" key="36" vol="100" pos="240" len="24"/>
          <note pan="0" key="36" vol="100" pos="264" len="24"/>
          <note pan="0" key="36" vol="100" pos="288" len="24"/>
          <note pan="0" key="36" vol="100" pos="312" len="24"/>
          <note pan="0" key="36" vol="100" pos="336" len="24"/>
          <note pan="0" key="36" vol="100" pos="360" len="24"/>
          <note pan="0" key="31" vol="100" pos="384" len="24"/>
          <note pan="0" key="31" vol="100" pos="408" len="24"/>
          <note pan="0" key="31" vol="100" pos="432" len="24"/>
          <note pan="0" key="31" vol="100" pos="456" len="24"/>
          <note pan="0" key="31" vol="100" pos="480" len="24"/>
          <note pan="0" key="31" vol="100" pos="504" len="24"/>
          <note pan="0" key="31" vol="100" pos="528" len="24"/>
          <note pan="0" key="31" vol="100" pos="552" len="24"/>
          <note pan="0" key="26" vol="100" pos="576" len="24"/>
          <note pan="0" key="45" vol="100" pos="576" len="192"/>
          <note pan="0" key="26" vol="100" pos="600" len="24"/>
          <note pan="0" key="26" vol="100" pos="624" len="24"/>
          <note pan="0" key="26" vol="100" pos="648" len="24"/>
          <note pan="0" key="26" vol="100" pos="672" len="24"/>
          <note pan="0" key="26" vol="100" pos="696" len="24"/>
          <note pan="0" key="26" vol="100" pos="720" len="24"/>
          <note pan="0" key="26" vol="100" pos="744" len="24"/>
        </pattern>
        <pattern steps="16" muted="0" type="1" name="TripleOscillator" pos="9216" len="768">
          <note pan="0" key="40" vol="100" pos="0" len="24"/>
          <note pan="0" key="40" vol="100" pos="24" len="24"/>
          <note pan="0" key="40" vol="100" pos="48" len="24"/>
          <note pan="0" key="40" vol="100" pos="72" len="24"/>
          <note pan="0" key="40" vol="100" pos="96" len="24"/>
          <note pan="0" key="40" vol="100" pos="120" len="24"/>
          <note pan="0" key="40" vol="100" pos="144" len="24"/>
          <note pan="0" key="40" vol="100" pos="168" len="24"/>
          <note pan="0" key="48" vol="100" pos="192" len="192"/>
          <note pan="0" key="36" vol="100" pos="192" len="24"/>
          <note pan="0" key="36" vol="100" pos="216" len="24"/>
          <note pan="0" key="36" vol="100" pos="240" len="24"/>
          <note pan="0" key="36" vol="100" pos="264" len="24"/>
          <note pan="0" key="36" vol="100" pos="288" len="24"/>
          <note pan="0" key="36" vol="100" pos="312" len="24"/>
          <note pan="0" key="36" vol="100" pos="336" len="24"/>
          <note pan="0" key="36" vol="100" pos="360" len="24"/>
          <note pan="0" key="31" vol="100" pos="384" len="24"/>
          <note pan="0" key="31" vol="100" pos="408" len="24"/>
          <note pan="0" key="31" vol="100" pos="432" len="24"/>
          <note pan="0" key="31" vol="100" pos="456" len="24"/>
          <note pan="0" key="31" vol="100" pos="480" len="24"/>
          <note pan="0" key="31" vol="100" pos="504" len="24"/>
          <note pan="0" key="31" vol="100" pos="528" len="24"/>
          <note pan="0" key="31" vol="100" pos="552" len="24"/>
          <note pan="0" key="26" vol="100" pos="576" len="24"/>
          <note pan="0" key="45" vol="100" pos="576" len="192"/>
          <note pan="0" key="26" vol="100" pos="600" len="24"/>
          <note pan="0" key="26" vol="100" pos="624" len="24"/>
          <note pan="0" key="26" vol="100" pos="648" len="24"/>
          <note pan="0" key="26" vol="100" pos="672" len="24"/>
          <note pan="0" key="26" vol="100" pos="696" len="24"/>
          <note pan="0" key="26" vol="100" pos="720" len="24"/>
          <note pan="0" key="26" vol="100" pos="744" len="24"/>
        </pattern>
        <pattern steps="16" muted="0" type="1" name="TripleOscillator" pos="9984" len="768">
          <note pan="0" key="40" vol="100" pos="0" len="24"/>
          <note pan="0" key="40" vol="100" pos="24" len="24"/>
          <note pan="0" key="40" vol="100" pos="48" len="24"/>
          <note pan="0" key="40" vol="100" pos="72" len="24"/>
          <note pan="0" key="40" vol="100" pos="96" len="24"/>
          <note pan="0" key="40" vol="100" pos="120" len="24"/>
          <note pan="0" key="40" vol="100" pos="144" len="24"/>
          <note pan="0" key="40" vol="100" pos="168" len="24"/>
          <note pan="0" key="48" vol="100" pos="192" len="192"/>
          <note pan="0" key="36" vol="100" pos="192" len="24"/>
          <note pan="0" key="36" vol="100" pos="216" len="24"/>
          <note pan="0" key="36" vol="100" pos="240" len="24"/>
          <note pan="0" key="36" vol="100" pos="264" len="24"/>
          <note pan="0" key="36" vol="100" pos="288" len="24"/>
          <note pan="0" key="36" vol="100" pos="312" len="24"/>
          <note pan="0" key="36" vol="100" pos="336" len="24"/>
          <note pan="0" key="36" vol="100" pos="360" len="24"/>
          <note pan="0" key="31" vol="100" pos="384" len="24"/>
          <note pan="0" key="31" vol="100" pos="408" len="24"/>
          <note pan="0" key="31" vol="100" pos="432" len="24"/>
          <note pan="0" key="31" vol="100" pos="456" len="24"/>
          <note pan="0" key="31" vol="100" pos="480" len="24"/>
          <note pan="0" key="31" vol="100" pos="504" len="24"/>
          <note pan="0" key="31" vol="100" pos="528" len="24"/>
          <note pan="0" key="31" vol="100" pos="552" len="24"/>
          <note pan="0" key="26" vol="100" pos="576" len="24"/>
          <note pan="0" key="45" vol="100" pos="576" len="192"/>
          <note pan="0" key="26" vol="100" pos="600" len="24"/>
          <note pan="0" key="26" vol="100" pos="624" len="24"/>
          <note pan="0" key="26" vol="100" pos="648" len="24"/>
          <note pan="0" key="26" vol="100" pos="672" len="24"/>
          <note pan="0" key="26" vol="100" pos="696" len="24"/>
          <note pan="0" key="26" vol="100" pos="720" len="24"/>
          <note pan="0" key="26" vol="100" pos="744" len="24"/>
        </pattern>
        <pattern steps="16" muted="0" type="1" name="TripleOscillator" pos="10752" len="768">
          <note pan="0" key="40" vol="100" pos="0" len="24"/>
          <note pan="0" key="40" vol="100" pos="24" len="24"/>
          <note pan="0" key="40" vol="100" pos="48" len="24"/>
          <note pan="0" key="40" vol="100" pos="72" len="24"/>
          <note pan="0" key="40" vol="100" pos="96" len="24"/>
          <note pan="0" key="40" vol="100" pos="120" len="24"/>
          <note pan="0" key="40" vol="100" pos="144" len="24"/>
          <note pan="0" key="40" vol="100" pos="168" len="24"/>
          <note pan="0" key="48" vol="100" pos="192" len="192"/>
          <note pan="0" key="36" vol="100" pos="192" len="24"/>
          <note pan="0" key="36" vol="100" pos="216" len="24"/>
          <note pan="0" key="36" vol="100" pos="240" len="24"/>
          <note pan="0" key="36" vol="100" pos="264" len="24"/>
          <note pan="0" key="36" vol="100" pos="288" len="24"/>
          <note pan="0" key="36" vol="100" pos="312" len="24"/>
          <note pan="0" key="36" vol="100" pos="336" len="24"/>
          <note pan="0" key="36" vol="100" pos="360" len="24"/>
          <note pan="0" key="31" vol="100" pos="384" len="24"/>
          <note pan="0" key="31" vol="100" pos="408" len="24"/>
          <note pan="0" key="31" vol="100" pos="432" len="24"/>
          <note pan="0" key="31" vol="100" pos="456" len="24"/>
          <note pan="0" key="31" vol="100" pos="480" len="24"/>
          <note pan="0" key="31" vol="100" pos="504" len="24"/>
          <note pan="0" key="31" vol="100" pos="528" len="24"/>
          <note pan="0" key="31" vol="100" pos="552" len="24"/>
          <note pan="0" key="26" vol="100" pos="576" len="24"/>
          <note pan="0" key="45" vol="100" pos="576" len="192"/>
          <note pan="0" key="26" vol="100" pos="600" len="24"/>
          <note pan="0" key="26" vol="100" pos="624" len="24"/>
          <note pan="0" key="26" vol="100" pos="648" len="24"/>
          <note pan="0" key="26" vol="100" pos="672" len="24"/>
          <note pan="0" key="26" vol="100" pos="696" len="24"/>
          <note pan="0" key="26" vol="100" pos="720" len="24"/>
          <note pan="0" key="26" vol="100" pos="744" len="24"/>
        </pattern>
        <pattern steps="16" muted="0" type="1" name="TripleOscillator" pos="11520" len="768">
          <note pan="0" key="40" vol="100" pos="0" len="24"/>
          <note pan="0" key="40" vol="100" pos="24" len="24"/>
          <note pan="0" key="40" vol="100" pos="48" len="24"/>
          <note pan="0" key="40" vol="100" pos="72" len="24"/>
          <note pan="0" key="40" vol="100" pos="96" len="24"/>
          <note pan="0" key="40" vol="100" pos="120" len="24"/>
          <note pan="0" key="40" vol="100" pos="144" len="24"/>
          <note pan="0" key="40" vol="100" pos="168" len="24"/>
          <note pan="0" key="48" vol="100" pos="192" len="192"/>
          <note pan="0" key="36" vol="100" pos="192" len="24"/>
          <note pan="0" key="36" vol="100" pos="216" len="24"/>
          <note pan="0" key="36" vol="100" pos="240" len="24"/>
          <note pan="0" key="36" vol="100" pos="264" len="24"/>
          <note pan="0" key="36" vol="100" pos="288" len="24"/>
          <note pan="0" key="36" vol="100" pos="312" len="24"/>
          <note pan="0" key="36" vol="100" pos="336" len="24"/>
          <note pan="0" key="36" vol="100" pos="360" len="24"/>
          <note pan="0" key="31" vol="100" pos="384" len="24"/>
          <note pan="0" key="31" vol="100" pos="408" len="24"/>
          <note pan="0" key="31" vol="100" pos="432" len="24"/>
          <note pan="0" key="31" vol="100" pos="456" len="24"/>
          <note pan="0" key="31" vol="100" pos="480" len="24"/>
          <note pan="0" key="31" vol="100" pos="504" len="24"/>
          <note pan="0" key="31" vol="100" pos="528" len="24"/>
          <note pan="0" key="31" vol="100" pos="552" len="24"/>
          <note pan="0" key="26" vol="100" pos="576" len="24"/>
          <note pan="0" key="45" vol="100" pos="576" len="192"/>
          <note pan="0" key="26" vol="100" pos="600" len="24"/>
          <note pan="0" key="26" vol="100" pos="624" len="24"/>
          <note pan="0" key="26" vol="100" pos="648" len="24"/>
          <note pan="0" key="26" vol="100" pos="672" len="24"/>
          <note pan="0" key="26" vol="100" pos="696" len="24"/>
          <note pan="0" key="26" vol="100" pos="720" len="24"/>
          <note pan="0" key="26" vol="100" pos="744" len="24"/>
        </pattern>
        <pattern steps="16" muted="0" type="1" name="TripleOscillator" pos="12288" len="768">
          <note pan="0" key="40" vol="100" pos="0" len="24"/>
          <note pan="0" key="40" vol="100" pos="24" len="24"/>
          <note pan="0" key="40" vol="100" pos="48" len="24"/>
          <note pan="0" key="40" vol="100" pos="72" len="24"/>
          <note pan="0" key="40" vol="100" pos="96" len="24"/>
          <note pan="0" key="40" vol="100" pos="120" len="24"/>
          <note pan="0" key="40" vol="100" pos="144" len="24"/>
          <note pan="0" key="40" vol="100" pos="168" len="24"/>
          <note pan="0" key="48" vol="100" pos="192" len="192"/>
          <note pan="0" key="36" vol="100" pos="192" len="24"/>
          <note pan="0" key="36" vol="100" pos="216" len="24"/>
          <note pan="0" key="36" vol="100" pos="240" len="24"/>
          <note pan="0" key="36" vol="100" pos="264" len="24"/>
          <note pan="0" key="36" vol="100" pos="288" len="24"/>
          <note pan="0" key="36" vol="100" pos="312" len="24"/>
          <note pan="0" key="36" vol="100" pos="336" len="24"/>
          <note pan="0" key="36" vol="100" pos="360" len="24"/>
          <note pan="0" key="31" vol="100" pos="384" len="24"/>
          <note pan="0" key="31" vol="100" pos="408" len="24"/>
          <note pan="0" key="31" vol="100" pos="432" len="24"/>
          <note pan="0" key="31" vol="100" pos="456" len="24"/>
          <note pan="0" key="31" vol="100" pos="480" len="24"/>
          <note pan="0" key="31" vol="100" pos="504" len="24"/>
          <note pan="0" key="31" vol="100" pos="528" len="24"/>
          <note pan="0" key="31" vol="100" pos="552" len="24"/>
          <note pan="0" key="26" vol="100" pos="576" len="24"/>
          <note pan="0" key="45" vol="100" pos="576" len="192"/>
          <note pan="0" key="26" vol="100" pos="600" len="24"/>
          <note pan="0" key="26" vol="100" pos="624" len="24"/>
          <note pan="0" key="26" vol="100" pos="648" len="24"/>
          <note pan="0" key="26" vol="100" pos="672" len="24"/>
          <note pan="0" key="26" vol="100" pos="696" len="24"/>
          <note pan="0" key="26" vol="100" pos="720" len="24"/>
          <note pan="0" key="26" vol="100" pos="744" len="24"/>
        </pattern>
        <pattern steps="16" muted="0" type="1" name="TripleOscillator" pos="13056" len="768">
          <note pan="0" key="40" vol="100" pos="0" len="24"/>
          <note pan="0" key="40" vol="100" pos="24" len="24"/>
          <note pan="0" key="40" vol="100" pos="48" len="24"/>
          <note pan="0" key="40" vol="100" pos="72" len="24"/>
          <note pan="0" key="40" vol="100" pos="96" len="24"/>
          <note pan="0" key="40" vol="100" pos="120" len="24"/>
          <note pan="0" key="40" vol="100" pos="144" len="24"/>
          <note pan="0" key="40" vol="100" pos="168" len="24"/>
          <note pan="0" key="48" vol="100" pos="192" len="192"/>
          <note pan="0" key="36" vol="100" pos="192" len="24"/>
          <note pan="0" key="36" vol="100" pos="216" len="24"/>
          <note pan="0" key="36" vol="100" pos="240" len="24"/>
          <note pan="0" key="36" vol="100" pos="264" len="24"/>
          <note pan="0" key="36" vol="100" pos="288" len="24"/>
          <note pan="0" key="36" vol="100" pos="312" len="24"/>
          <note pan="0" key="36" vol="100" pos="336" len="24"/>
          <note pan="0" key="36" vol="100" pos="360" len="24"/>
          <note pan="0" key="31" vol="100" pos="384" len="24"/>
          <note pan="0" key="31" vol="100" pos="408" len="24"/>
          <note pan="0" key="31" vol="100" pos="432" len="24"/>
          <note pan="0" key="31" vol="100" pos="456" len="24"/>
          <note pan="0" key="31" vol="100" pos="480" len="24"/>
          <note pan="0" key="31" vol="100" pos="504" len="24"/>
          <note pan="0" key="31" vol="100" pos="528" len="24"/>
          <note pan="0" key="31" vol="100" pos="552" len="24"/>
          <note pan="0" key="26" vol="100" pos="576" len="24"/>
          <note pan="0" key="45" vol="100" pos="576" len="192"/>
          <note pan="0" key="26" vol="100" pos="600" len="24"/>
          <note pan="0" key="26" vol="100" pos="624" len="24"/>
          <note pan="0" key="26" vol="100" pos="648" len="24"/>
          <note pan="0" key="26" vol="100" pos="672" len="24"/>
          <note pan="0" key="26" vol="100" pos="696" len="24"/>
          <note pan="0" key="26" vol="100" pos="720" len="24"/>
          <note pan="0" key="26" vol="100" pos="744" len="24"/>
        </pattern>
        <pattern steps="16" muted="0" type="1" name="TripleOscillator" pos="13824" len="768">
          <note pan="0" key="40" vol="100" pos="0" len="24"/>
          <note pan="0" key="40" vol="100" pos="24" len="24"/>
          <note pan="0" key="40" vol="100" pos="48" len="24"/>
          <note pan="0" key="40" vol="100" pos="72" len="24"/>
          <note pan="0" key="40" vol="100" pos="96" len="24"/>
          <note pan="0" key="40" vol="100" pos="120" len="24"/>
          <note pan="0" key="40" vol="100" pos="144" len="24"/>
          <note pan="0" key="40" vol="100" pos="168" len="24"/>
          <note pan="0" key="48" vol="100" pos="192" len="192"/>
          <note pan="0" key="36" vol="100" pos="192" len="24"/>
          <note pan="0" key="36" vol="100" pos="216" len="24"/>
          <note pan="0" key="36" vol="100" pos="240" len="24"/>
          <note pan="0" key="36" vol="100" pos="264" len="24"/>
          <note pan="0" key="36" vol="100" pos="288" len="24"/>
          <note pan="0" key="36" vol="100" pos="312" len="24"/>
          <note pan="0" key="36" vol="100" pos="336" len="24"/>
          <note pan="0" key="36" vol="100" pos="360" len="24"/>
          <note pan="0" key="31" vol="100" pos="384" len="24"/>
          <note pan="0" key="31" vol="100" pos="408" len="24"/>
          <note pan="0" key="31" vol="100" pos="432" len="24"/>
          <note pan="0" key="31" vol="100" pos="456" len="24"/>
          <note pan="0" key="31" vol="100" pos="480" len="24"/>
          <note pan="0" key="31" vol="100" pos="504" len="24"/>
          <note pan="0" key="31" vol="100" pos="528" len="24"/>
          <note pan="0" key="31" vol="100" pos="552" len="24"/>
          <note pan="0" key="26" vol="100" pos="576" len="24"/>
          <note pan="0" key="45" vol="100" pos="576" len="192"/>
          <note pan="0" key="26" vol="100" pos="600" len="24"/>
          <note pan="0" key="26" vol="100" pos="624" len="24"/>
          <note pan="0" key="26" vol="100" pos="648" len="24"/>
          <note pan="0" key="26" vol="100" pos="672" len="24"/>
          <note pan="0" key="26" vol="100" pos="696" len="24"/>
          <note pan="0" key="26" vol="100" pos="720" len="24"/>
          <note pan="0" key="26" vol="100" pos="744" len="24"/>
        </pattern>
        <pattern steps="16" muted="0" type="1" name="TripleOscillator" pos="14592" len="768">
          <note pan="0" key="40" vol="100" pos="0" len="24"/>
          <note pan="0" key="40" vol="100" pos="24" len="24"/>
          <note pan="0" key="40" vol="100" pos="48" len="24"/>
          <note pan="0" key="40" vol="100" pos="72" len="24"/>
          <note pan="0" key="40" vol="100" pos="96" len="24"/>
          <note pan="0" key="40" vol="100" pos="120" len="24"/>
          <note pan="0" key="40" vol="100" pos="144" len="24"/>
          <note pan="0" key="40" vol="100" pos="168" len="24"/>
          <note pan="0" key="48" vol="100" pos="192" len="192"/>
          <note pan="0" key="36" vol="100" pos="192" len="24"/>
          <note pan="0" key="36" vol="100" pos="216" len="24"/>
          <note pan="0" key="36" vol="100" pos="240" len="24"/>
          <note pan="0" key="36" vol="100" pos="264" len="24"/>
          <note pan="0" key="36" vol="100" pos="288" len="24"/>
          <note pan="0" key="36" vol="100" pos="312" len="24"/>
          <note pan="0" key="36" vol="100" pos="336" len="24"/>
          <note pan="0" key="36" vol="100" pos="360" len="24"/>
          <note pan="0" key="31" vol="100" pos="384" len="24"/>
          <note pan="0" key="31" vol="100" pos="408" len="24"/>
          <note pan="0" key="31" vol="100" pos="432" len="24"/>
          <note pan="0" key="31" vol="100" pos="456" len="24"/>
          <note pan="0" key="31" vol="100" pos="480" len="24"/>
          <note pan="0" key="31" vol="100" pos="504" len="24"/>
          <note pan="0" key="31" vol="100" pos="528" len="24"/>
          <note pan="0" key="31" vol="100" pos="552" len="24"/>
          <note pan="0" key="26" vol="100" pos="576" len="24"/>
          <note pan="0" key="45" vol="100" pos="576" len="192"/>
          <note pan="0" key="26" vol="100" pos="600" len="24"/>
          <note pan="0" key="26" vol="100" pos="624" len="24"/>
          <note pan="0" key="26" vol="100" pos="648" len="24"/>
          <note pan="0" key="26" vol="100" pos="672" len="24"/>
          <note pan="0" key="26" vol="100" pos="696" len="24"/>
          <note pan="0" key="26" vol="100" pos="720" len="24"/>
          <note pan="0" key="26" vol="100" pos="744" len="24"/>
        </pattern>
        <pattern steps="16" muted="0" type="1" name="TripleOscillator" pos="15360" len="768">
          <note pan="0" key="40" vol="100" pos="0" len="24"/>
          <note pan="0" key="40" vol="100" pos="24" len="24"/>
          <note pan="0" key="40" vol="100" pos="48" len="24"/>
          <note pan="0" key="40" vol="100" pos="72" len="24"/>
          <note pan="0" key="40" vol="100" pos="96" len="24"/>
          <note pan="0" key="40" vol="100" pos="120" len="24"/>
          <note pan="0" key="40" vol="100" pos="144" len="24"/>
          <note pan="0" key="40" vol="100" pos="168" len="24"/>
          <note pan="0" key="48" vol="100" pos="192" len="192"/>
          <note pan="0" key="36" vol="100" pos="192" len="24"/>
          <note pan="0" key="36" vol="100" pos="216" len="24"/>
          <note pan="0" key="36" vol="100" pos="240" len="24"/>
          <note pan="0" key="36" vol="100" pos="264" len="24"/>
          <note pan="0" key="36" vol="100" pos="288" len="24"/>
          <note pan="0" key="36" vol="100" pos="312" len="24"/>
          <note pan="0" key="36" vol="100" pos="336" len="24"/>
          <note pan="0" key="36" vol="100" pos="360" len="24"/>
          <note pan="0" key="31" vol="100" pos="384" len="24"/>
          <note pan="0" key="31" vol="100" pos="408" len="24"/>
          <note pan="0" key="31" vol="100" pos="432" len="24"/>
          <note pan="0" key="31" vol="100" pos="456" len="24"/>
          <note pan="0" key="31" vol="100" pos="480" len="24"/>
          <note pan="0" key="31" vol="100" pos="504" len="24"/>
          <note pan="0" key="31" vol="100" pos="528" len="24"/>
          <note pan="0" key="31" vol="100" pos="552" len="24"/>
          <note pan="0" key="26" vol="100" pos="576" len="24"/>
          <note pan="0" key="45" vol="100" pos="576" len="192"/>
          <note pan="0" key="26" vol="100" pos="600" len="24"/>
          <note pan="0" key="26" vol="100" pos="624" len="24"/>
          <note pan="0" key="26" vol="100" pos="648" len="24"/>
          <note pan="0" key="26" vol="100" pos="672" len="24"/>
          <note pan="0" key="26" vol="100" pos="696" len="24"/>
          <note pan="0" key="26" vol="100" pos="720" len="24"/>
          <note pan="0" key="26" vol="100" pos="744" len="24"/>
        </pattern>
        <pattern steps="16" muted="0" type="1" name="TripleOscillator" pos="16128" len="768">
          <note pan="0" key="40" vol="100" pos="0" len="24"/>
          <note pan="0" key="40" vol="100" pos="24" len="24"/>
          <note pan="0" key="40" vol="100" pos="48" len="24"/>
          <note pan="0" key="40" vol="100" pos="72" len="24"/>
          <note pan="0" key="40" vol="100" pos="96" len="24"/>
          <note pan="0" key="40" vol="100" pos="120" len="24"/>
          <note pan="0" key="40" vol="100" pos="144" len="24"/>
          <note pan="0" key="40" vol="100" pos="168" len="24"/>
          <note pan="0" key="48" vol="100" pos="192" len="192"/>
          <note pan="0" key="36" vol="100" pos="192" len="24"/>
          <note pan="0" key="36" vol="100" pos="216" len="24"/>
          <note pan="0" key="36" vol="100" pos="240" len="24"/>
          <note pan="0" key="36" vol="100" pos="264" len="24"/>
          <note pan="0" key="36" vol="100" pos="288" len="24"/>
          <note pan="0" key="36" vol="100" pos="312" len="24"/>
          <note pan="0" key="36" vol="100" pos="336" len="24"/>
          <note pan="0" key="36" vol="100" pos="360" len="24"/>
          <note pan="0" key="31" vol="100" pos="384" len="24"/>
          <note pan="0" key="31" vol="100" pos="408" len="24"/>
          <note pan="0" key="31" vol="100" pos="432" len="24"/>
          <note pan="0" key="31" vol="100" pos="456" len="24"/>
          <note pan="0" key="31" vol="100" pos="480" len="24"/>
          <note pan="0" key="31" vol="100" pos="504" len="24"/>
          <note pan="0" key="31" vol="100" pos="528" len="24"/>
          <note pan="0" key="31" vol="100" pos="552" len="24"/>
          <note pan="0" key="26" vol="100" pos="576" len="24"/>
          <note pan="0" key="45" vol="100" pos="576" len="192"/>
          <note pan="0" key="26" vol="100" pos="600" len="24"/>
          <note pan="0" key="26" vol="100" pos="624" len="24"/>
          <note pan="0" key="26" vol="100" pos="648" len="24"/>
          <note pan="0" key="26" vol="100" pos="672" len="24"/>
          <note pan="0" key="26" vol="100" pos="696" len="24"/>
          <note pan="0" key="26" vol="100" pos="720" len="24"/>
          <note pan="0" key="26" vol="100" pos="744" len="24"/>
        </pattern>
        <pattern steps="16" muted="0" type="1" name="TripleOscillator" pos="16896" len="768">
          <note pan="0" key="40" vol="100" pos="0" len="24"/>
          <note pan="0" key="40" vol="100" pos="24" len="24"/>
          <note pan="0" key="40" vol="100" pos="48" len="24"/>
          <note pan="0" key="40" vol="100" pos="72" len="24"/>
          <note pan="0" key="40" vol="100" pos="96" len="24"/>
          <note pan="0" key="40" vol="100" pos="120" len="24"/>
          <note pan="0" key="40" vol="100" pos="144" len="24"/>
          <note pan="0" key="40" vol="100" pos="168" len="24"/>
          <note pan="0" key="48" vol="100" pos="192" len="192"/>
          <note pan="0" key="36" vol="100" pos="192" len="24"/>
          <note pan="0" key="36" vol="100" pos="216" len="24"/>
          <note pan="0" key="36" vol="100" pos="240" len="24"/>
          <note pan="0" key="36" vol="100" pos="264" len="24"/>
          <note pan="0" key="36" vol="100" pos="288" len="24"/>
          <note pan="0" key="36" vol="100" pos="312" len="24"/>
          <note pan="0" key="36" vol="100" pos="336" len="24"/>
          <note pan="0" key="36" vol="100" pos="360" len="24"/>
          <note pan="0" key="31" vol="100" pos="384" len="24"/>
          <note pan="0" key="31" vol="100" pos="408" len="24"/>
          <note pan="0" key="31" vol="100" pos="432" len="24"/>
          <note pan="0" key="31" vol="100" pos="456" len="24"/>
          <note pan="0" key="31" vol="100" pos="480" len="24"/>
          <note pan="0" key="31" vol="100" pos="504" len="24"/>
          <note pan="0" key="31" vol="100" pos="528" len="24"/>
          <note pan="0" key="31" vol="100" pos="552" len="24"/>
          <note pan="0" key="26" vol="100" pos="576" len="24"/>
          <note pan="0" key="45" vol="100" pos="576" len="192"/>
          <note pan="0" key="26" vol="100" pos="600" len="24"/>
          <note pan="0" key="26" vol="100" pos="624" len="24"/>
          <note pan="0" key="26" vol="100" pos="648" len="24"/>
          <note pan="0" key="26" vol="100" pos="672" len="24"/>
          <note pan="0" key="26" vol="100" pos="696" len="24"/>
          <note pan="0" key="26" vol="100" pos="720" len="24"/>
          <note pan="0" key="26" vol="100" pos="744" len="24"/>
        </pattern>
        <pattern steps="16" muted="0" type="1" name="TripleOscillator" pos="17664" len="768">
          <note pan="0" key="40" vol="100" pos="0" len="24"/>
          <note pan="0" key="40" vol="100" pos="24" len="24"/>
          <note pan="0" key="40" vol="100" pos="48" len="24"/>
          <note pan="0" key="40" vol="100" pos="72" len="24"/>
          <note pan="0" key="40" vol="100" pos="96" len="24"/>
          <note pan="0" key="40" vol="100" pos="120" len="24"/>
          <note pan="0" key="40" vol="100" pos="144" len="24"/>
          <note pan="0" key="40" vol="100" pos="168" len="24"/>
          <note pan="0" key="48" vol="100" pos="192" len="192"/>
          <note pan="0" key="36" vol="100" pos="192" len="24"/>
          <note pan="0" key="36" vol="100" pos="216" len="24"/>
          <note pan="0" key="36" vol="100" pos="240" len="24"/>
          <note pan="0" key="36" vol="100" pos="264" len="24"/>
          <note pan="0" key="36" vol="100" pos="288" len="24"/>
          <note pan="0" key="36" vol="100" pos="312" len="24"/>
          <note pan="0" key="36" vol="100" pos="336" len="24"/>
          <note pan="0" key="36" vol="100" pos="360" len="24"/>
          <note pan="0" key="31" vol="100" pos="384" len="24"/>
          <note pan="0" key="31" vol="100" pos="408" len="24"/>
          <note pan="0" key="31" vol="100" pos="432" len="24"/>
          <note pan="0" key="31" vol="100" pos="456" len="24"/>
          <note pan="0" key="31" vol="100" pos="480" len="24"/>
          <note pan="0" key="31" vol="100" pos="504" len="24"/>
          <note pan="0" key="31" vol="100" pos="528" len="24"/>
          <note pan="0" key="31" vol="100" pos="552" len="24"/>
          <note pan="0" key="26" vol="100" pos="576" len="24"/>
          <note pan="0" key="45" vol="100" pos="576" len="192"/>
          <note pan="0" key="26" vol="100" pos="600" len="24"/>
          <note pan="0" key="26" vol="100" pos="624" len="24"/>
          <note pan="0" key="26" vol="100" pos="648" len="24"/>
          <note pan="0" key="26" vol="100" pos="672" len="24"/>
          <note pan="0" key="26" vol="100" pos="696" len="24"/>
          <note pan="0" key="26" vol="100" pos="720" len="24"/>
          <note pan="0" key="26" vol="100" pos="744" len="24"/>
        </pattern>
        <pattern steps="16" muted="0" type="1" name="TripleOscillator" pos="18432" len="768">
          <note pan="0" key="40" vol="100" pos="0" len="24"/>
          <note pan="0" key="40" vol="100" pos="24" len="24"/>
          <note pan="0" key="40" vol="100" pos="48" len="24"/>
          <note pan="0" key="40" vol="100" pos="72" len="24"/>
          <note pan="0" key="40" vol="100" pos="96" len="24"/>
          <note pan="0" key="40" vol="100" pos="120" len="24"/>
          <note pan="0" key="40" vol="100" pos="144" len="24"/>
          <note pan="0" key="40" vol="100" pos="168" len="24"/>
          <note pan="0" key="48" vol="100" pos="192" len="192"/>
          <note pan="0" key="36" vol="100" pos="192" len="24"/>
          <note pan="0" key="36" vol="100" pos="216" len="24"/>
          <note pan="0" key="36" vol="100" pos="240" len="24"/>
          <note pan="0" key="36" vol="100" pos="264" len="24"/>
          <note pan="0" key="36" vol="100" pos="288" len="24"/>
          <note pan="0" key="36" vol="100" pos="312" len="24"/>
          <note pan="0" key="36" vol="100" pos="336" len="24"/>
          <note pan="0" key="36" vol="100" pos="360" len="24"/>
          <note pan="0" key="31" vol="100" pos="384" len="24"/>
          <note pan="0" key="31" vol="100" pos="408" len="24"/>
          <note pan="0" key="31" vol="100" pos="432" len="24"/>
          <note pan="0" key="31" vol="100" pos="456" len="24"/>
          <note pan="0" key="31" vol="100" pos="480" len="24"/>
          <note pan="0" key="31" vol="100" pos="504" len="24"/>
          <note pan="0" key="31" vol="100" pos="528" len="24"/>
          <note pan="0" key="31" vol="100" pos="552" len="24"/>
          <note pan="0" key="26" vol="100" pos="576" len="24"/>
          <note pan="0" key="45" vol="100" pos="576" len="192"/>
          <note pan="0" key="26" vol="100" pos="600" len="24"/>
          <note pan="0" key="26" vol="100" pos="624" len="24"/>
          <note pan="0" key="26" vol="100" pos="648" len="24"/>
          <note pan="0" key="26" vol="100" pos="672" len="24"/>
          <note pan="0" key="26" vol="100" pos="696" len="24"/>
          <note pan="0" key="26" vol="100" pos="720" len="24"/>
          <note pan="0" key="26" vol="100" pos="744" len="24"/>
        </pattern>
        <pattern steps="16" muted="0" type="1" name="TripleOscillator" pos="19200" len="768">
          <note pan="0" key="40" vol="100" pos="0" len="24"/>
          <note pan="0" key="40" vol="100" pos="24" len="24"/>
          <note pan="0" key="40" vol="100" pos="48" len="24"/>
          <note pan="0" key="40" vol="100" pos="72" len="24"/>
          <note pan="0" key="40" vol="100" pos="96" len="24"/>
          <note pan="0" key="40" vol="100" pos="120" len="24"/>
          <note pan="0" key="40" vol="100" pos="144" len="24"/>
          <note pan="0" key="40" vol="100" pos="168" len="24"/>
          <note pan="0" key="48" vol="100" pos="192" len="192"/>
          <note pan="0" key="36" vol="100" pos="192" len="24"/>
          <note pan="0" key="36" vol="100" pos="216" len="24"/>
          <note pan="0" key="36" vol="100" pos="240" len="24"/>
          <note pan="0" key="36" vol="100" pos="264" len="24"/>
          <note pan="0" key="36" vol="100" pos="288" len="24"/>
          <note pan="0" key="36" vol="100" pos="312" len="24"/>
          <note pan="0" key="36" vol="100" pos="336" len="24"/>
          <note pan="0" key="36" vol="100" pos="360" len="24"/>
          <note pan="0" key="31" vol="100" pos="384" len="24"/>
          <note pan="0" key="31" vol="100" pos="408" len="24"/>
          <note pan="0" key="31" vol="100" pos="432" len="24"/>
          <note pan="0" key="31" vol="100" pos="456" len="24"/>
          <note pan="0" key="31" vol="100" pos="480" len="24"/>
          <note pan="0" key="31" vol="100" pos="504" len="24"/>
          <note pan="0" key="31" vol="100" pos="528" len="24"/>
          <note pan="0" key="31" vol="100" pos="552" len="24"/>
          <note pan="0" key="26" vol="100" pos="576" len="24"/>
          <note pan="0" key="45" vol="100" pos="576" len="192"/>
          <note pan="0" key="26" vol="100" pos="600" len="24"/>
          <note pan="0" key="26" vol="100" pos="624" len="24"/>
          <note pan="0" key="26" vol="100" pos="648" len="24"/>
          <note pan="0" key="26" vol="100" pos="672" len="24"/>
          <note pan="0" key="26" vol="100" pos="696" len="24"/>
          <note pan="0" key="26" vol="100" pos="720" len="24"/>
          <note pan="0" key="26" vol="100" pos="744" len="24"/>
        </pattern>
        <pattern steps="16" muted="0" type="1" name="TripleOscillator" pos="19968" len="768">
          <note pan="0" key="40" vol="100" pos="0" len="24"/>
          <note pan="0" key="40" vol="100" pos="24" len="24"/>
          <note pan="0" key="40" vol="100" pos="48" len="24"/>
          <note pan="0" key="40" vol="100" pos="72" len="24"/>
          <note pan="0" key="40" vol="100" pos="96" len="24"/>
          <note pan="0" key="40" vol="100" pos="120" len="24"/>
          <note pan="0" key="40" vol="100" pos="144" len="24"/>
          <note pan="0" key="40" vol="100" pos="168" len="24"/>
          <note pan="0" key="48" vol="100" pos="192" len="192"/>
          <note pan="0" key="36" vol="100" pos="192" len="24"/>
          <note pan="0" key="36" vol="100" pos="216" len="24"/>
          <note pan="0" key="36" vol="100" pos="240" len="24"/>
          <note pan="0" key="36" vol="100" pos="264" len="24"/>
          <note pan="0" key="36" vol="100" pos="288" len="24"/>
          <note pan="0" key="36" vol="100" pos="312" len="24"/>
          <note pan="0" key="36" vol="100" pos="336" len="24"/>
          <note pan="0" key="36" vol="100" pos="360" len="24"/>
          <note pan="0" key="31" vol="100" pos="384" len="24"/>
          <note pan="0" key="31" vol="100" pos="408" len="24"/>
          <note pan="0" key="31" vol="100" pos="432" len="24"/>
          <note pan="0" key="31" vol="100" pos="456" len="24"/>
          <note pan="0" key="31" vol="100" pos="480" len="24"/>
          <note pan="0" key="31" vol="100" pos="504" len="24"/>
          <note pan="0" key="31" vol="100" pos="528" len="24"/>
          <note pan="0" key="31" vol="100" pos="552" len="24"/>
          <note pan="0" key="26" vol="100" pos="576" len="24"/>
          <note pan="0" key="45" vol="100" pos="576" len="192"/>
          <note pan="0" key="26" vol="100" pos="600" len="24"/>
          <note pan="0" key="26" vol="100" pos="624" len="24"/>
          <note pan="0" key="26" vol="100" pos="648" len="24"/>
          <note pan="0" key="26" vol="100" pos="672" len="24"/>
          <note pan="0" key="26" vol="100" pos="696" len="24"/>
          <note pan="0" key="26" vol="100" pos="720" len="24"/>
          <note pan="0" key="26" vol="100" pos="744" len="24"/>
        </pattern>
        <pattern steps="16" muted="0" type="1" name="TripleOscillator" pos="20736" len="768">
          <note pan="0" key="40" vol="100" pos="0" len="24"/>
          <note pan="0" key="40" vol="100" pos="24" len="24"/>
          <note pan="0" key="40" vol="100" pos="48" len="24"/>
          <note pan="0" key="40" vol="100" pos="72" len="24"/>
          <note pan="0" key="40" vol="100" pos="96" len="24"/>
          <note pan="0" key="40" vol="100" pos="120" len="24"/>
          <note pan="0" key="40" vol="100" pos="144" len="24"/>
          <note pan="0" key="40" vol="100" pos="168" len="24"/>
          <note pan="0" key="48" vol="100" pos="192" len="192"/>
          <note pan="0" key="36" vol="100" pos="192" len="24"/>
          <note pan="0" key="36" vol="100" pos="216" len="24"/>
          <note pan="0" key="36" vol="100" pos="240" len="24"/>
          <note pan="0" key="36" vol="100" pos="264" len="24"/>
          <note pan="0" key="36" vol="100" pos="288" len="24"/>
          <note pan="0" key="36" vol="100" pos="312" len="24"/>
          <note pan="0" key="36" vol="100" pos="336" len="24"/>
          <note pan="0" key="36" vol="100" pos="360" len="24"/>
          <note pan="0" key="31" vol="100" pos="384" len="24"/>
          <note pan="0" key="31" vol="100" pos="408" len="24"/>
          <note pan="0" key="31" vol="100" pos="432" len="24"/>
          <note pan="0" key="31" vol="100" pos="456" len="24"/>
          <note pan="0" key="31" vol="100" pos="480" len="24"/>
          <note pan="0" key="31" vol="100" pos="504" len="24"/>
          <note pan="0" key="31" vol="100" pos="528" len="24"/>
          <note pan="0" key="31" vol="100" pos="552" len="24"/>
          <note pan="0" key="26" vol="100" pos="576" len="24"/>
          <note pan="0" key="45" vol="100" pos="576" len="192"/>
          <note pan="0" key="26" vol="100" pos="600" len="24"/>
          <note pan="0" key="26" vol="100" pos="624" len="24"/>
          <note pan="0" key="26" vol="100" pos="648" len="24"/>
          <note pan="0" key="26" vol="100" pos="672" len="24"/>
          <note pan="0" key="26" vol="100" pos="696" len="24"/>
          <note pan="0" key="26" vol="100" pos="720" len="24"/>
          <note pan="0" key="26" vol="100" pos="744" len="24"/>
        </pattern>
        <pattern steps="16" muted="0" type="1" name="TripleOscillator" pos="21504" len="768">
          <note pan="0" key="40" vol="100" pos="0" len="24"/>
          <note pan="0" key="40" vol="100" pos="24" len="24"/>
          <note pan="0" key="40" vol="100" pos="48" len="24"/>
          <note pan="0" key="40" vol="100" pos="72" len="24"/>
          <note pan="0" key="40" vol="100" pos="96" len="24"/>
          <note pan="0" key="40" vol="100" pos="120" len="24"/>
          <note pan="0" key="40" vol="100" pos="144" len="24"/>
          <note pan="0" key="40" vol="100" pos="168" len="24"/>
          <note pan="0" key="48" vol="100" pos="192" len="192"/>
          <note pan="0" key="36" vol="100" pos="192" len="24"/>
          <note pan="0" key="36" vol="100" pos="216" len="24"/>
          <note pan="0" key="36" vol="100" pos="240" len="24"/>
          <note pan="0" key="36" vol="100" pos="264" len="24"/>
          <note pan="0" key="36" vol="100" pos="288" len="24"/>
          <note pan="0" key="36" vol="100" pos="312" len="24"/>
          <note pan="0" key="36" vol="100" pos="336" len="24"/>
          <note pan="0" key="36" vol="100" pos="360" len="24"/>
          <note pan="0" key="31" vol="100" pos="384" len="24"/>
          <note pan="0" key="31" vol="100" pos="408" len="24"/>
          <note pan="0" key="31" vol="100" pos="432" len="24"/>
          <note pan="0" key="31" vol="100" pos="456" len="24"/>
          <note pan="0" key="31" vol="100" pos="480" len="24"/>
          <note pan="0" key="31" vol="100" pos="504" len="24"/>
          <note pan="0" key="31" vol="100" pos="528" len="24"/>
          <note pan="0" key="31" vol="100" pos="552" len="24"/>
          <note pan="0" key="26" vol="100" pos="576" len="24"/>
          <note pan="0" key="45" vol="100" pos="576" len="192"/>
          <note pan="0" key="26" vol="100" pos="600" len="24"/>
          <note pan="0" key="26" vol="100" pos="624" len="24"/>
          <note pan="0" key="26" vol="100" pos="648" len="24"/>
          <note pan="0" key="26" vol="100" pos="672" len="24"/>
          <note pan="0" key="26" vol="100" pos="696" len="24"/>
          <note pan="0" key="26" vol="100" pos="720" len="24"/>
          <note pan="0" key="26" vol="100" pos="744" len="24"/>
        </pattern>
        <pattern steps="16" muted="0" type="1" name="TripleOscillator" pos="22272" len="768">
          <note pan="0" key="40" vol="100" pos="0" len="24"/>
          <note pan="0" key="40" vol="100" pos="24" len="24"/>
          <note pan="0" key="40" vol="100" pos="48" len="24"/>
          <note pan="0" key="40" vol="100" pos="72" len="24"/>
          <note pan="0" key="40" vol="100" pos="96" len="24"/>
          <note pan="0" key="40" vol="100" pos="120" len="24"/>
          <note pan="0" key="40" vol="100" pos="144" len="24"/>
          <note pan="0" key="40" vol="100" pos="168" len="24"/>
          <note pan="0" key="48" vol="100" pos="192" len="192"/>
          <note pan="0" key="36" vol="100" pos="192" len="24"/>
          <note pan="0" key="36" vol="100" pos="216" len="24"/>
          <note pan="0" key="36" vol="100" pos="240" len="24"/>
          <note pan="0" key="36" vol="100" pos="264" len="24"/>
          <note pan="0" key="36" vol="100" pos="288" len="24"/>
          <note pan="0" key="36" vol="100" pos="312" len="24"/>
          <note pan="0" key="36" vol="100" pos="336" len="24"/>
          <note pan="0" key="36" vol="100" pos="360" len="24"/>
          <note pan="0" key="31" vol="100" pos="384" len="24"/>
          <note pan="0" key="31" vol="100" pos="408" len="24"/>
          <note pan="0" key="31" vol="100" pos="432" len="24"/>
          <note pan="0" key="31" vol="100" pos="456" len="24"/>
          <note pan="0" key="31" vol="100" pos="480" len="24"/>
          <note pan="0" key="31" vol="100" pos="504" len="24"/>
          <note pan="0" key="31" vol="100" pos="528" len="24"/>
          <note pan="0" key="31" vol="100" pos="552" len="24"/>
          <note pan="0" key="26" vol="100" pos="576" len="24"/>
          <note pan="0" key="26" vol="100" pos="600" len="24"/>
          <note pan="0" key="26" vol="100" pos="624" len="24"/>
          <note pan="0" key="26" vol="100" pos="648" len="24"/>
          <note pan="0" key="26" vol="100" pos="672" len="24"/>
          <note pan="0" key="26" vol="100" pos="696" len="24"/>
          <note pan="0" key="26" vol="100" pos="720" len="24"/>
          <note pan="0" key="26" vol="100" pos="744" len="24"/>
        </pattern>
        <pattern steps="16" muted="0" type="1" name="TripleOscillator" pos="23040" len="768">
          <note pan="0" key="40" vol="100" pos="0" len="24"/>
          <note pan="0" key="40" vol="100" pos="24" len="24"/>
          <note pan="0" key="40" vol="100" pos="48" len="24"/>
          <note pan="0" key="40" vol="100" pos="72" len="24"/>
          <note pan="0" key="40" vol="100" pos="96" len="24"/>
          <note pan="0" key="40" vol="100" pos="120" len="24"/>
          <note pan="0" key="40" vol="100" pos="144" len="24"/>
          <note pan="0" key="40" vol="100" pos="168" len="24"/>
          <note pan="0" key="48" vol="100" pos="192" len="192"/>
          <note pan="0" key="36" vol="100" pos="192" len="24"/>
          <note pan="0" key="36" vol="100" pos="216" len="24"/>
          <note pan="0" key="36" vol="100" pos="240" len="24"/>
          <note pan="0" key="36" vol="100" pos="264" len="24"/>
          <note pan="0" key="36" vol="100" pos="288" len="24"/>
          <note pan="0" key="36" vol="100" pos="312" len="24"/>
          <note pan="0" key="36" vol="100" pos="336" len="24"/>
          <note pan="0" key="36" vol="100" pos="360" len="24"/>
          <note pan="0" key="31" vol="100" pos="384" len="24"/>
          <note pan="0" key="31" vol="100" pos="408" len="24"/>
          <note pan="0" key="31" vol="100" pos="432" len="24"/>
          <note pan="0" key="31" vol="100" pos="456" len="24"/>
          <note pan="0" key="31" vol="100" pos="480" len="24"/>
          <note pan="0" key="31" vol="100" pos="504" len="24"/>
          <note pan="0" key="31" vol="100" pos="528" len="24"/>
          <note pan="0" key="31" vol="100" pos="552" len="24"/>
          <note pan="0" key="26" vol="100" pos="576" len="24"/>
          <note pan="0" key="45" vol="100" pos="576" len="192"/>
          <note pan="0" key="26" vol="100" pos="600" len="24"/>
          <note pan="0" key="26" vol="100" pos="624" len="24"/>
          <note pan="0" key="26" vol="100" pos="648" len="24"/>
          <note pan="0" key="26" vol="100" pos="672" len="24"/>
          <note pan="0" key="26" vol="100" pos="696" len="24"/>
          <note pan="0" key="26" vol="100" pos="720" len="24"/>
          <note pan="0" key="26" vol="100" pos="744" len="24"/>
        </pattern>
        <pattern steps="16" muted="0" type="1" name="TripleOscillator" pos="23808" len="768">
          <note pan="0" key="40" vol="100" pos="0" len="24"/>
          <note pan="0" key="40" vol="100" pos="24" len="24"/>
          <note pan="0" key="40" vol="100" pos="48" len="24"/>
          <note pan="0" key="40" vol="100" pos="72" len="24"/>
          <note pan="0" key="40" vol="100" pos="96" len="24"/>
          <note pan="0" key="40" vol="100" pos="120" len="24"/>
          <note pan="0" key="40" vol="100" pos="144" len="24"/>
          <note pan="0" key="40" vol="100" pos="168" len="24"/>
          <note pan="0" key="48" vol="100" pos="192" len="192"/>
          <note pan="0" key="36" vol="100" pos="192" len="24"/>
          <note pan="0" key="36" vol="100" pos="216" len="24"/>
          <note pan="0" key="36" vol="100" pos="240" len="24"/>
          <note pan="0" key="36" vol="100" pos="264" len="24"/>
          <note pan="0" key="36" vol="100" pos="288" len="24"/>
          <note pan="0" key="36" vol="100" pos="312" len="24"/>
          <note pan="0" key="36" vol="100" pos="336" len="24"/>
          <note pan="0" key="36" vol="100" pos="360" len="24"/>
          <note pan="0" key="31" vol="100" pos="384" len="24"/>
          <note pan="0" key="31" vol="100" pos="408" len="24"/>
          <note pan="0" key="31" vol="100" pos="432" len="24"/>
          <note pan="0" key="31" vol="100" pos="456" len="24"/>
          <note pan="0" key="31" vol="100" pos="480" len="24"/>
          <note pan="0" key="31" vol="100" pos="504" len="24"/>
          <note pan="0" key="31" vol="100" pos="528" len="24"/>
          <note pan="0" key="31" vol="100" pos="552" len="24"/>
          <note pan="0" key="26" vol="100" pos="576" len="24"/>
          <note pan="0" key="45" vol="100" pos="576" len="96"/>
          <note pan="0" key="26" vol="100" pos="600" len="24"/>
          <note pan="0" key="26" vol="100" pos="624" len="24"/>
          <note pan="0" key="26" vol="100" pos="648" len="24"/>
          <note pan="0" key="26" vol="100" pos="672" len="24"/>
          <note pan="0" key="26" vol="100" pos="696" len="24"/>
        </pattern>
      </track>
      <track muted="0" type="2" name="Sample track" solo="0">
        <sampletrack vol="100">
          <fxchain numofeffects="0" enabled="0"/>
        </sampletrack>
      </track>
      <track muted="0" type="1" name="kick snare primary" solo="0">
        <bbtrack>
          <trackcontainer width="1270" x="0" y="0" maximized="1" height="622" visible="0" type="bbtrackcontainer" minimized="0">
            <track muted="0" type="0" name="Kicker" solo="0">
              <instrumenttrack pan="0" fxch="0" pitchrange="1" pitch="0" basenote="57" vol="100">
                <instrument name="kicker">
                  <kicker decay_numerator="4" decay_denominator="4" distend="0.8" click="0.4" endnote="0" version="1" decay="440" syncmode="0" noise="0" slope="0.06" dist="0.8" env="0.163" startnote="0" startfreq="150" endfreq="40" gain="1"/>
                </instrument>
                <eldata fres="0.5" ftype="0" fcut="14000" fwet="0">
                  <elvol lspd_denominator="4" sustain="0.5" pdel="0" userwavefile="" dec="0.5" lamt="0" syncmode="0" latt="0" rel="0.1" amt="0" x100="0" att="0" lpdel="0" hold="0.5" lshp="0" lspd="0.1" ctlenvamt="0" lspd_numerator="4"/>
                  <elcut lspd_denominator="4" sustain="0.5" pdel="0" userwavefile="" dec="0.5" lamt="0" syncmode="0" latt="0" rel="0.1" amt="0" x100="0" att="0" lpdel="0" hold="0.5" lshp="0" lspd="0.1" ctlenvamt="0" lspd_numerator="4"/>
                  <elres lspd_denominator="4" sustain="0.5" pdel="0" userwavefile="" dec="0.5" lamt="0" syncmode="0" latt="0" rel="0.1" amt="0" x100="0" att="0" lpdel="0" hold="0.5" lshp="0" lspd="0.1" ctlenvamt="0" lspd_numerator="4"/>
                </eldata>
                <chordcreator chord="0" chordrange="1" chord-enabled="0"/>
                <arpeggiator arptime="100" arprange="1" arptime_denominator="4" syncmode="0" arpmode="0" arp-enabled="0" arp="0" arptime_numerator="4" arpdir="0" arpgate="100"/>
                <midiport inputcontroller="0" fixedoutputvelocity="-1" inputchannel="0" outputcontroller="0" writable="0" outputchannel="1" fixedinputvelocity="-1" fixedoutputnote="-1" outputprogram="1" basevelocity="63" readable="0"/>
                <fxchain numofeffects="0" enabled="0"/>
              </instrumenttrack>
              <pattern steps="16" muted="0" type="0" name="Kicker" pos="0" len="192"/>
              <pattern steps="16" muted="0" type="0" name="Kicker" pos="192" len="192"/>
              <pattern steps="16" muted="0" type="0" name="Kicker" pos="384" len="192"/>
              <pattern steps="16" muted="0" type="0" name="Kicker" pos="576" len="192"/>
              <pattern steps="16" muted="0" type="0" name="Kicker" pos="768" len="192"/>
              <pattern steps="16" muted="0" type="0" name="Kicker" pos="960" len="192"/>
              <pattern steps="16" muted="0" type="0" name="Kicker" pos="1152" len="192"/>
              <pattern steps="16" muted="0" type="0" name="Kicker" pos="1344" len="192"/>
            </track>
            <track muted="0" type="0" name="kick01.ogg" solo="0">
              <instrumenttrack pan="0" fxch="1" pitchrange="1" pitch="0" basenote="57" vol="102.8">
                <instrument name="audiofileprocessor">
                  <audiofileprocessor reversed="0" looped="0" lframe="0" interp="1" eframe="1" stutter="0" sframe="0" src="drums/kick01.ogg" amp="100"/>
                </instrument>
                <eldata fres="0.5" ftype="0" fcut="14000" fwet="0">
                  <elvol lspd_denominator="4" sustain="0.5" pdel="0" userwavefile="" dec="0.5" lamt="0" syncmode="0" latt="0" rel="0.1" amt="0" x100="0" att="0" lpdel="0" hold="0.5" lshp="0" lspd="0.1" ctlenvamt="0" lspd_numerator="4"/>
                  <elcut lspd_denominator="4" sustain="0.5" pdel="0" userwavefile="" dec="0.5" lamt="0" syncmode="0" latt="0" rel="0.1" amt="0" x100="0" att="0" lpdel="0" hold="0.5" lshp="0" lspd="0.1" ctlenvamt="0" lspd_numerator="4"/>
                  <elres lspd_denominator="4" sustain="0.5" pdel="0" userwavefile="" dec="0.5" lamt="0" syncmode="0" latt="0" rel="0.1" amt="0" x100="0" att="0" lpdel="0" hold="0.5" lshp="0" lspd="0.1" ctlenvamt="0" lspd_numerator="4"/>
                </eldata>
                <chordcreator chord="0" chordrange="1" chord-enabled="0"/>
                <arpeggiator arptime="100" arprange="1" arptime_denominator="4" syncmode="0" arpmode="0" arp-enabled="0" arp="0" arptime_numerator="4" arpdir="0" arpgate="100"/>
                <midiport inputcontroller="0" fixedoutputvelocity="-1" inputchannel="0" outputcontroller="0" writable="0" outputchannel="1" fixedinputvelocity="-1" fixedoutputnote="-1" outputprogram="1" basevelocity="63" readable="0"/>
                <fxchain numofeffects="0" enabled="0"/>
              </instrumenttrack>
              <pattern steps="16" muted="0" type="0" name="kick01.ogg" pos="0" len="192">
                <note pan="0" key="57" vol="100" pos="0" len="-192"/>
                <note pan="0" key="57" vol="100" pos="48" len="-192"/>
                <note pan="0" key="57" vol="100" pos="120" len="-192"/>
                <note pan="0" key="57" vol="100" pos="168" len="-192"/>
              </pattern>
              <pattern steps="16" muted="0" type="0" name="kick01.ogg" pos="192" len="192">
                <note pan="0" key="57" vol="100" pos="0" len="-192"/>
                <note pan="0" key="57" vol="100" pos="48" len="-192"/>
                <note pan="0" key="57" vol="100" pos="120" len="-192"/>
                <note pan="0" key="57" vol="100" pos="168" len="-192"/>
              </pattern>
              <pattern steps="16" muted="0" type="0" name="kick01.ogg" pos="384" len="192">
                <note pan="0" key="57" vol="100" pos="0" len="-192"/>
                <note pan="0" key="57" vol="100" pos="48" len="-192"/>
                <note pan="0" key="57" vol="100" pos="96" len="-192"/>
                <note pan="0" key="57" vol="100" pos="144" len="-192"/>
              </pattern>
              <pattern steps="16" muted="0" type="0" name="kick01.ogg" pos="576" len="192"/>
              <pattern steps="16" muted="0" type="0" name="kick01.ogg" pos="768" len="192"/>
              <pattern steps="16" muted="0" type="0" name="kick01.ogg" pos="960" len="192"/>
              <pattern steps="16" muted="0" type="0" name="kick01.ogg" pos="1152" len="192"/>
              <pattern steps="16" muted="0" type="0" name="kick01.ogg" pos="1344" len="192">
                <note pan="0" key="57" vol="100" pos="0" len="-192"/>
                <note pan="0" key="57" vol="100" pos="24" len="-192"/>
                <note pan="0" key="57" vol="100" pos="48" len="-192"/>
                <note pan="0" key="57" vol="100" pos="72" len="-192"/>
                <note pan="0" key="57" vol="100" pos="96" len="-192"/>
                <note pan="0" key="57" vol="100" pos="120" len="-192"/>
                <note pan="0" key="57" vol="100" pos="144" len="-192"/>
                <note pan="0" key="57" vol="100" pos="168" len="-192"/>
              </pattern>
            </track>
            <track muted="0" type="0" name="snare (2).wav" solo="0">
              <instrumenttrack pan="0" fxch="2" pitchrange="1" pitch="0" basenote="57" vol="124.3">
                <instrument name="audiofileprocessor">
                  <audiofileprocessor reversed="0" looped="0" lframe="0" interp="1" eframe="1" stutter="0" sframe="0" src="Snares scaricati/snare (2).wav" amp="100"/>
                </instrument>
                <eldata fres="0.5" ftype="0" fcut="14000" fwet="0">
                  <elvol lspd_denominator="4" sustain="0.5" pdel="0" userwavefile="" dec="0.5" lamt="0" syncmode="0" latt="0" rel="0.1" amt="0" x100="0" att="0" lpdel="0" hold="0.5" lshp="0" lspd="0.1" ctlenvamt="0" lspd_numerator="4"/>
                  <elcut lspd_denominator="4" sustain="0.5" pdel="0" userwavefile="" dec="0.5" lamt="0" syncmode="0" latt="0" rel="0.1" amt="0" x100="0" att="0" lpdel="0" hold="0.5" lshp="0" lspd="0.1" ctlenvamt="0" lspd_numerator="4"/>
                  <elres lspd_denominator="4" sustain="0.5" pdel="0" userwavefile="" dec="0.5" lamt="0" syncmode="0" latt="0" rel="0.1" amt="0" x100="0" att="0" lpdel="0" hold="0.5" lshp="0" lspd="0.1" ctlenvamt="0" lspd_numerator="4"/>
                </eldata>
                <chordcreator chord="0" chordrange="1" chord-enabled="0"/>
                <arpeggiator arptime="100" arprange="1" arptime_denominator="4" syncmode="0" arpmode="0" arp-enabled="0" arp="0" arptime_numerator="4" arpdir="0" arpgate="100"/>
                <midiport inputcontroller="0" fixedoutputvelocity="-1" inputchannel="0" outputcontroller="0" writable="0" outputchannel="1" fixedinputvelocity="-1" fixedoutputnote="-1" outputprogram="1" basevelocity="63" readable="0"/>
                <fxchain numofeffects="0" enabled="0"/>
              </instrumenttrack>
              <pattern steps="16" muted="0" type="0" name="snare (2).wav" pos="0" len="192">
                <note pan="0" key="57" vol="100" pos="96" len="-192"/>
              </pattern>
              <pattern steps="16" muted="0" type="0" name="snare (2).wav" pos="192" len="192">
                <note pan="0" key="57" vol="100" pos="96" len="-192"/>
                <note pan="0" key="57" vol="100" pos="144" len="-192"/>
              </pattern>
              <pattern steps="16" muted="0" type="0" name="snare (2).wav" pos="384" len="192"/>
              <pattern steps="16" muted="0" type="0" name="snare (2).wav" pos="576" len="192"/>
              <pattern steps="16" muted="0" type="0" name="snare (2).wav" pos="768" len="192"/>
              <pattern steps="16" muted="0" type="0" name="snare (2).wav" pos="960" len="192"/>
              <pattern steps="16" muted="0" type="0" name="snare (2).wav" pos="1152" len="192"/>
              <pattern steps="16" muted="0" type="0" name="snare (2).wav" pos="1344" len="192"/>
            </track>
            <track muted="0" type="0" name="hihat_closed02.ogg" solo="0">
              <instrumenttrack pan="0" fxch="3" pitchrange="1" pitch="0" basenote="57" vol="100">
                <instrument name="audiofileprocessor">
                  <audiofileprocessor reversed="0" looped="0" lframe="0" interp="1" eframe="1" stutter="0" sframe="0" src="drums/hihat_closed02.ogg" amp="100"/>
                </instrument>
                <eldata fres="0.5" ftype="0" fcut="14000" fwet="0">
                  <elvol lspd_denominator="4" sustain="0.5" pdel="0" userwavefile="" dec="0.5" lamt="0" syncmode="0" latt="0" rel="0.1" amt="0" x100="0" att="0" lpdel="0" hold="0.5" lshp="0" lspd="0.1" ctlenvamt="0" lspd_numerator="4"/>
                  <elcut lspd_denominator="4" sustain="0.5" pdel="0" userwavefile="" dec="0.5" lamt="0" syncmode="0" latt="0" rel="0.1" amt="0" x100="0" att="0" lpdel="0" hold="0.5" lshp="0" lspd="0.1" ctlenvamt="0" lspd_numerator="4"/>
                  <elres lspd_denominator="4" sustain="0.5" pdel="0" userwavefile="" dec="0.5" lamt="0" syncmode="0" latt="0" rel="0.1" amt="0" x100="0" att="0" lpdel="0" hold="0.5" lshp="0" lspd="0.1" ctlenvamt="0" lspd_numerator="4"/>
                </eldata>
                <chordcreator chord="0" chordrange="1" chord-enabled="0"/>
                <arpeggiator arptime="100" arprange="1" arptime_denominator="4" syncmode="0" arpmode="0" arp-enabled="0" arp="0" arptime_numerator="4" arpdir="0" arpgate="100"/>
                <midiport inputcontroller="0" fixedoutputvelocity="-1" inputchannel="0" outputcontroller="0" writable="0" outputchannel="1" fixedinputvelocity="-1" fixedoutputnote="-1" outputprogram="1" basevelocity="63" readable="0"/>
                <fxchain numofeffects="0" enabled="0"/>
              </instrumenttrack>
              <pattern steps="16" muted="0" type="0" name="hihat_closed02.ogg" pos="0" len="192"/>
              <pattern steps="16" muted="0" type="0" name="hihat_closed02.ogg" pos="192" len="192"/>
              <pattern steps="16" muted="0" type="0" name="hihat_closed02.ogg" pos="384" len="192"/>
              <pattern steps="16" muted="0" type="0" name="hihat_closed02.ogg" pos="576" len="192">
                <note pan="0" key="57" vol="100" pos="0" len="-192"/>
                <note pan="0" key="57" vol="100" pos="24" len="-192"/>
                <note pan="0" key="57" vol="100" pos="48" len="-192"/>
                <note pan="0" key="57" vol="100" pos="72" len="-192"/>
              </pattern>
              <pattern steps="16" muted="0" type="0" name="hihat_closed02.ogg" pos="768" len="192">
                <note pan="0" key="57" vol="100" pos="0" len="-192"/>
                <note pan="0" key="57" vol="100" pos="12" len="-192"/>
                <note pan="0" key="57" vol="100" pos="24" len="-192"/>
                <note pan="0" key="57" vol="100" pos="36" len="-192"/>
                <note pan="0" key="57" vol="100" pos="48" len="-192"/>
                <note pan="0" key="57" vol="100" pos="72" len="-192"/>
                <note pan="0" key="57" vol="100" pos="96" len="-192"/>
                <note pan="0" key="57" vol="100" pos="120" len="-192"/>
              </pattern>
              <pattern steps="16" muted="0" type="0" name="hihat_closed02.ogg" pos="960" len="192">
                <note pan="0" key="57" vol="100" pos="0" len="-192"/>
                <note pan="0" key="57" vol="100" pos="12" len="-192"/>
                <note pan="0" key="57" vol="100" pos="24" len="-192"/>
                <note pan="0" key="57" vol="100" pos="36" len="-192"/>
                <note pan="0" key="57" vol="100" pos="48" len="-192"/>
                <note pan="0" key="57" vol="100" pos="60" len="-192"/>
                <note pan="0" key="57" vol="100" pos="72" len="-192"/>
                <note pan="0" key="57" vol="100" pos="84" len="-192"/>
                <note pan="0" key="57" vol="100" pos="96" len="-192"/>
                <note pan="0" key="57" vol="100" pos="108" len="-192"/>
                <note pan="0" key="57" vol="100" pos="120" len="-192"/>
                <note pan="0" key="57" vol="100" pos="132" len="-192"/>
                <note pan="0" key="57" vol="100" pos="144" len="-192"/>
                <note pan="0" key="57" vol="100" pos="156" len="-192"/>
                <note pan="0" key="57" vol="100" pos="168" len="-192"/>
                <note pan="0" key="57" vol="100" pos="180" len="-192"/>
              </pattern>
              <pattern steps="16" muted="0" type="0" name="hihat_closed02.ogg" pos="1152" len="192">
                <note pan="0" key="57" vol="100" pos="0" len="-192"/>
                <note pan="0" key="57" vol="100" pos="24" len="-192"/>
                <note pan="0" key="57" vol="100" pos="48" len="-192"/>
                <note pan="0" key="57" vol="100" pos="96" len="-192"/>
                <note pan="0" key="57" vol="100" pos="120" len="-192"/>
                <note pan="0" key="57" vol="100" pos="144" len="-192"/>
              </pattern>
              <pattern steps="16" muted="0" type="0" name="hihat_closed02.ogg" pos="1344" len="192"/>
            </track>
          </trackcontainer>
        </bbtrack>
        <bbtco muted="0" usestyle="1" name="" pos="0" color="4286611584" len="192"/>
        <bbtco muted="0" usestyle="1" name="" pos="192" color="4286611584" len="192"/>
        <bbtco muted="0" usestyle="1" name="" pos="384" color="4286611584" len="192"/>
        <bbtco muted="0" usestyle="1" name="" pos="768" color="4286611584" len="192"/>
        <bbtco muted="0" usestyle="1" name="" pos="960" color="4286611584" len="192"/>
        <bbtco muted="0" usestyle="1" name="" pos="1152" color="4286611584" len="192"/>
        <bbtco muted="0" usestyle="1" name="" pos="1536" color="4286611584" len="192"/>
        <bbtco muted="0" usestyle="1" name="" pos="1728" color="4286611584" len="192"/>
        <bbtco muted="0" usestyle="1" name="" pos="1920" color="4286611584" len="192"/>
        <bbtco muted="0" usestyle="1" name="" pos="2304" color="4286611584" len="192"/>
        <bbtco muted="0" usestyle="1" name="" pos="2496" color="4286611584" len="192"/>
        <bbtco muted="0" usestyle="1" name="" pos="2688" color="4286611584" len="192"/>
        <bbtco muted="0" usestyle="1" name="" pos="3072" color="4286611584" len="192"/>
        <bbtco muted="0" usestyle="1" name="" pos="3264" color="4286611584" len="192"/>
        <bbtco muted="0" usestyle="1" name="" pos="3456" color="4286611584" len="192"/>
        <bbtco muted="0" usestyle="1" name="" pos="3840" color="4286611584" len="192"/>
        <bbtco muted="0" usestyle="1" name="" pos="4032" color="4286611584" len="192"/>
        <bbtco muted="0" usestyle="1" name="" pos="4224" color="4286611584" len="192"/>
        <bbtco muted="0" usestyle="1" name="" pos="4608" color="4286611584" len="192"/>
        <bbtco muted="0" usestyle="1" name="" pos="4800" color="4286611584" len="192"/>
        <bbtco muted="0" usestyle="1" name="" pos="4992" color="4286611584" len="192"/>
        <bbtco muted="0" usestyle="1" name="" pos="5376" color="4286611584" len="192"/>
        <bbtco muted="0" usestyle="1" name="" pos="5568" color="4286611584" len="192"/>
        <bbtco muted="0" usestyle="1" name="" pos="5760" color="4286611584" len="192"/>
        <bbtco muted="0" usestyle="1" name="" pos="6144" color="4286611584" len="192"/>
        <bbtco muted="0" usestyle="1" name="" pos="6336" color="4286611584" len="192"/>
        <bbtco muted="0" usestyle="1" name="" pos="6912" color="4286611584" len="192"/>
        <bbtco muted="0" usestyle="1" name="" pos="7104" color="4286611584" len="192"/>
        <bbtco muted="0" usestyle="1" name="" pos="6528" color="4286611584" len="192"/>
        <bbtco muted="0" usestyle="1" name="" pos="7296" color="4286611584" len="192"/>
        <bbtco muted="0" usestyle="1" name="" pos="7680" color="4286611584" len="192"/>
        <bbtco muted="0" usestyle="1" name="" pos="7872" color="4286611584" len="192"/>
        <bbtco muted="0" usestyle="1" name="" pos="8064" color="4286611584" len="192"/>
        <bbtco muted="0" usestyle="1" name="" pos="8448" color="4286611584" len="192"/>
        <bbtco muted="0" usestyle="1" name="" pos="8640" color="4286611584" len="192"/>
        <bbtco muted="0" usestyle="1" name="" pos="8832" color="4286611584" len="192"/>
        <bbtco muted="0" usestyle="1" name="" pos="9216" color="4286611584" len="192"/>
        <bbtco muted="0" usestyle="1" name="" pos="9408" color="4286611584" len="192"/>
        <bbtco muted="0" usestyle="1" name="" pos="9600" color="4286611584" len="192"/>
        <bbtco muted="0" usestyle="1" name="" pos="9984" color="4286611584" len="192"/>
        <bbtco muted="0" usestyle="1" name="" pos="10176" color="4286611584" len="192"/>
        <bbtco muted="0" usestyle="1" name="" pos="10368" color="4286611584" len="192"/>
        <bbtco muted="0" usestyle="1" name="" pos="14592" color="4286611584" len="192"/>
        <bbtco muted="0" usestyle="1" name="" pos="14784" color="4286611584" len="192"/>
        <bbtco muted="0" usestyle="1" name="" pos="14976" color="4286611584" len="192"/>
        <bbtco muted="0" usestyle="1" name="" pos="13824" color="4286611584" len="192"/>
        <bbtco muted="0" usestyle="1" name="" pos="14016" color="4286611584" len="192"/>
        <bbtco muted="0" usestyle="1" name="" pos="14208" color="4286611584" len="192"/>
        <bbtco muted="0" usestyle="1" name="" pos="15360" color="4286611584" len="192"/>
        <bbtco muted="0" usestyle="1" name="" pos="15552" color="4286611584" len="192"/>
        <bbtco muted="0" usestyle="1" name="" pos="15744" color="4286611584" len="192"/>
        <bbtco muted="0" usestyle="1" name="" pos="16128" color="4286611584" len="192"/>
        <bbtco muted="0" usestyle="1" name="" pos="16320" color="4286611584" len="192"/>
        <bbtco muted="0" usestyle="1" name="" pos="16512" color="4286611584" len="192"/>
        <bbtco muted="0" usestyle="1" name="" pos="16896" color="4286611584" len="192"/>
        <bbtco muted="0" usestyle="1" name="" pos="17088" color="4286611584" len="192"/>
        <bbtco muted="0" usestyle="1" name="" pos="17280" color="4286611584" len="192"/>
        <bbtco muted="0" usestyle="1" name="" pos="17664" color="4286611584" len="192"/>
        <bbtco muted="0" usestyle="1" name="" pos="17856" color="4286611584" len="192"/>
        <bbtco muted="0" usestyle="1" name="" pos="18048" color="4286611584" len="192"/>
        <bbtco muted="0" usestyle="1" name="" pos="18432" color="4286611584" len="192"/>
        <bbtco muted="0" usestyle="1" name="" pos="18624" color="4286611584" len="192"/>
        <bbtco muted="0" usestyle="1" name="" pos="18816" color="4286611584" len="192"/>
        <bbtco muted="0" usestyle="1" name="" pos="19392" color="4286611584" len="192"/>
        <bbtco muted="0" usestyle="1" name="" pos="19584" color="4286611584" len="192"/>
        <bbtco muted="0" usestyle="1" name="" pos="19200" color="4286611584" len="192"/>
        <bbtco muted="0" usestyle="1" name="" pos="19968" color="4286611584" len="192"/>
        <bbtco muted="0" usestyle="1" name="" pos="20160" color="4286611584" len="192"/>
        <bbtco muted="0" usestyle="1" name="" pos="20352" color="4286611584" len="192"/>
        <bbtco muted="0" usestyle="1" name="" pos="20736" color="4286611584" len="192"/>
        <bbtco muted="0" usestyle="1" name="" pos="20928" color="4286611584" len="192"/>
        <bbtco muted="0" usestyle="1" name="" pos="21120" color="4286611584" len="192"/>
        <bbtco muted="0" usestyle="1" name="" pos="21504" color="4286611584" len="192"/>
        <bbtco muted="0" usestyle="1" name="" pos="21696" color="4286611584" len="192"/>
        <bbtco muted="0" usestyle="1" name="" pos="21888" color="4286611584" len="192"/>
        <bbtco muted="0" usestyle="1" name="" pos="22272" color="4286611584" len="192"/>
        <bbtco muted="0" usestyle="1" name="" pos="22464" color="4286611584" len="192"/>
        <bbtco muted="0" usestyle="1" name="" pos="22656" color="4286611584" len="192"/>
        <bbtco muted="0" usestyle="1" name="" pos="23040" color="4286611584" len="192"/>
        <bbtco muted="0" usestyle="1" name="" pos="23424" color="4286611584" len="192"/>
        <bbtco muted="0" usestyle="1" name="" pos="23232" color="4286611584" len="192"/>
        <bbtco muted="0" usestyle="1" name="" pos="23808" color="4286611584" len="192"/>
        <bbtco muted="0" usestyle="1" name="" pos="24000" color="4286611584" len="192"/>
        <bbtco muted="0" usestyle="1" name="" pos="24192" color="4286611584" len="192"/>
      </track>
      <track muted="0" type="1" name="kick snare 2" solo="0">
        <bbtrack/>
        <bbtco muted="0" usestyle="1" name="" pos="576" color="4286611584" len="192"/>
        <bbtco muted="0" usestyle="1" name="" pos="1344" color="4286611584" len="192"/>
        <bbtco muted="0" usestyle="1" name="" pos="2112" color="4286611584" len="192"/>
        <bbtco muted="0" usestyle="1" name="" pos="3648" color="4286611584" len="192"/>
        <bbtco muted="0" usestyle="1" name="" pos="4416" color="4286611584" len="192"/>
        <bbtco muted="0" usestyle="1" name="" pos="5184" color="4286611584" len="192"/>
        <bbtco muted="0" usestyle="1" name="" pos="5952" color="4286611584" len="192"/>
        <bbtco muted="0" usestyle="1" name="" pos="6720" color="4286611584" len="192"/>
        <bbtco muted="0" usestyle="1" name="" pos="7488" color="4286611584" len="192"/>
        <bbtco muted="0" usestyle="1" name="" pos="8256" color="4286611584" len="192"/>
        <bbtco muted="0" usestyle="1" name="" pos="9024" color="4286611584" len="192"/>
        <bbtco muted="0" usestyle="1" name="" pos="9792" color="4286611584" len="192"/>
        <bbtco muted="0" usestyle="1" name="" pos="10560" color="4286611584" len="192"/>
        <bbtco muted="0" usestyle="1" name="" pos="15168" color="4286611584" len="192"/>
        <bbtco muted="0" usestyle="1" name="" pos="14400" color="4286611584" len="192"/>
        <bbtco muted="0" usestyle="1" name="" pos="15936" color="4286611584" len="192"/>
        <bbtco muted="0" usestyle="1" name="" pos="17472" color="4286611584" len="192"/>
        <bbtco muted="0" usestyle="1" name="" pos="18240" color="4286611584" len="192"/>
        <bbtco muted="0" usestyle="1" name="" pos="19008" color="4286611584" len="192"/>
        <bbtco muted="0" usestyle="1" name="" pos="19776" color="4286611584" len="192"/>
        <bbtco muted="0" usestyle="1" name="" pos="20544" color="4286611584" len="192"/>
        <bbtco muted="0" usestyle="1" name="" pos="21312" color="4286611584" len="192"/>
        <bbtco muted="0" usestyle="1" name="" pos="22080" color="4286611584" len="192"/>
        <bbtco muted="0" usestyle="1" name="" pos="22848" color="4286611584" len="192"/>
        <bbtco muted="0" usestyle="1" name="" pos="23616" color="4286611584" len="192"/>
        <bbtco muted="0" usestyle="1" name="" pos="24384" color="4286611584" len="156"/>
      </track>
      <track muted="0" type="1" name="fine kick" solo="0">
        <bbtrack/>
        <bbtco muted="0" usestyle="1" name="" pos="2880" color="4286611584" len="192"/>
        <bbtco muted="0" usestyle="1" name="" pos="16704" color="4286611584" len="192"/>
      </track>
      <track muted="0" type="5" name="oscillatore automat" solo="0">
        <automationtrack/>
        <automationpattern tens="1" mute="0" prog="0" name="TripleOscillator>Envelopes/LFOs>Cutoff frequency" pos="0" len="2880">
          <time value="14000" pos="0"/>
          <object id="108262"/>
        </automationpattern>
        <automationpattern tens="1" mute="0" prog="1" name="TripleOscillator>Envelopes/LFOs>Cutoff frequency" pos="2880" len="192">
          <time value="14000" pos="0"/>
          <time value="1" pos="192"/>
          <object id="108262"/>
        </automationpattern>
        <automationpattern tens="1" mute="0" prog="0" name="TripleOscillator>Envelopes/LFOs>Cutoff frequency" pos="3072" len="1344">
          <time value="14000" pos="0"/>
          <object id="108262"/>
        </automationpattern>
        <automationpattern tens="1" mute="0" prog="0" name="TripleOscillator>Envelopes/LFOs>Cutoff frequency" pos="4608" len="1344">
          <time value="14000" pos="0"/>
          <object id="108262"/>
        </automationpattern>
        <automationpattern tens="1" mute="0" prog="1" name="TripleOscillator>Envelopes/LFOs>Cutoff frequency" pos="4416" len="192">
          <time value="14000" pos="0"/>
          <time value="1" pos="192"/>
          <object id="108262"/>
        </automationpattern>
        <automationpattern tens="1" mute="0" prog="1" name="TripleOscillator>Envelopes/LFOs>Cutoff frequency" pos="5952" len="192">
          <time value="14000" pos="0"/>
          <time value="1" pos="192"/>
          <object id="108262"/>
        </automationpattern>
        <automationpattern tens="1" mute="0" prog="0" name="TripleOscillator>Envelopes/LFOs>Cutoff frequency" pos="6144" len="1344">
          <time value="14000" pos="0"/>
          <object id="108262"/>
        </automationpattern>
        <automationpattern tens="1" mute="0" prog="1" name="TripleOscillator>Envelopes/LFOs>Cutoff frequency" pos="7488" len="192">
          <time value="14000" pos="0"/>
          <time value="1" pos="192"/>
          <object id="108262"/>
        </automationpattern>
        <automationpattern tens="1" mute="0" prog="0" name="TripleOscillator>Envelopes/LFOs>Cutoff frequency" pos="7680" len="1344">
          <time value="14000" pos="0"/>
          <object id="108262"/>
        </automationpattern>
        <automationpattern tens="1" mute="0" prog="1" name="TripleOscillator>Envelopes/LFOs>Cutoff frequency" pos="9024" len="192">
          <time value="14000" pos="0"/>
          <time value="1" pos="192"/>
          <object id="108262"/>
        </automationpattern>
        <automationpattern tens="1" mute="0" prog="0" name="TripleOscillator>Envelopes/LFOs>Cutoff frequency" pos="9216" len="1344">
          <time value="14000" pos="0"/>
          <object id="108262"/>
        </automationpattern>
        <automationpattern tens="1" mute="0" prog="1" name="TripleOscillator>Envelopes/LFOs>Cutoff frequency" pos="10560" len="1728">
          <time value="14000" pos="0"/>
          <time value="1274" pos="192"/>
          <object id="108262"/>
        </automationpattern>
        <automationpattern tens="1" mute="0" prog="1" name="TripleOscillator>Envelopes/LFOs>Cutoff frequency" pos="12288" len="4416">
          <time value="1274" pos="0"/>
          <time value="13964" pos="1536"/>
          <object id="108262"/>
        </automationpattern>
        <automationpattern tens="1" mute="0" prog="1" name="TripleOscillator>Envelopes/LFOs>Cutoff frequency" pos="16704" len="192">
          <time value="14000" pos="0"/>
          <time value="1" pos="192"/>
          <object id="108262"/>
        </automationpattern>
        <automationpattern tens="1" mute="0" prog="0" name="TripleOscillator>Envelopes/LFOs>Cutoff frequency" pos="16896" len="1344">
          <time value="14000" pos="0"/>
          <object id="108262"/>
        </automationpattern>
        <automationpattern tens="1" mute="0" prog="1" name="TripleOscillator>Envelopes/LFOs>Cutoff frequency" pos="18240" len="192">
          <time value="14000" pos="0"/>
          <time value="1" pos="192"/>
          <object id="108262"/>
        </automationpattern>
        <automationpattern tens="1" mute="0" prog="0" name="TripleOscillator>Envelopes/LFOs>Cutoff frequency" pos="18432" len="1344">
          <time value="14000" pos="0"/>
          <object id="108262"/>
        </automationpattern>
        <automationpattern tens="1" mute="0" prog="1" name="TripleOscillator>Envelopes/LFOs>Cutoff frequency" pos="19776" len="192">
          <time value="14000" pos="0"/>
          <time value="1" pos="192"/>
          <object id="108262"/>
        </automationpattern>
        <automationpattern tens="1" mute="0" prog="0" name="TripleOscillator>Envelopes/LFOs>Cutoff frequency" pos="19968" len="1344">
          <time value="14000" pos="0"/>
          <object id="108262"/>
        </automationpattern>
        <automationpattern tens="1" mute="0" prog="1" name="TripleOscillator>Envelopes/LFOs>Cutoff frequency" pos="21312" len="192">
          <time value="14000" pos="0"/>
          <time value="1" pos="192"/>
          <object id="108262"/>
        </automationpattern>
        <automationpattern tens="1" mute="0" prog="0" name="TripleOscillator>Envelopes/LFOs>Cutoff frequency" pos="21504" len="1344">
          <time value="14000" pos="0"/>
          <object id="108262"/>
        </automationpattern>
        <automationpattern tens="1" mute="0" prog="1" name="TripleOscillator>Envelopes/LFOs>Cutoff frequency" pos="22848" len="192">
          <time value="14000" pos="0"/>
          <time value="1" pos="192"/>
          <object id="108262"/>
        </automationpattern>
        <automationpattern tens="1" mute="0" prog="0" name="TripleOscillator>Envelopes/LFOs>Cutoff frequency" pos="23040" len="1344">
          <time value="14000" pos="0"/>
          <object id="108262"/>
        </automationpattern>
      </track>
      <track muted="0" type="1" name="hat" solo="0">
        <bbtrack/>
        <bbtco muted="0" usestyle="1" name="" pos="3072" color="4286611584" len="192"/>
        <bbtco muted="0" usestyle="1" name="" pos="3456" color="4286611584" len="192"/>
        <bbtco muted="0" usestyle="1" name="" pos="3840" color="4286611584" len="192"/>
        <bbtco muted="0" usestyle="1" name="" pos="4224" color="4286611584" len="192"/>
        <bbtco muted="0" usestyle="1" name="" pos="9216" color="4286611584" len="192"/>
        <bbtco muted="0" usestyle="1" name="" pos="9600" color="4286611584" len="192"/>
        <bbtco muted="0" usestyle="1" name="" pos="9984" color="4286611584" len="192"/>
        <bbtco muted="0" usestyle="1" name="" pos="10368" color="4286611584" len="192"/>
        <bbtco muted="0" usestyle="1" name="" pos="12288" color="4286611584" len="192"/>
        <bbtco muted="0" usestyle="1" name="" pos="12672" color="4286611584" len="192"/>
        <bbtco muted="0" usestyle="1" name="" pos="13056" color="4286611584" len="192"/>
        <bbtco muted="0" usestyle="1" name="" pos="13440" color="4286611584" len="192"/>
        <bbtco muted="0" usestyle="1" name="" pos="16896" color="4286611584" len="192"/>
        <bbtco muted="0" usestyle="1" name="" pos="17280" color="4286611584" len="192"/>
        <bbtco muted="0" usestyle="1" name="" pos="17664" color="4286611584" len="192"/>
        <bbtco muted="0" usestyle="1" name="" pos="18048" color="4286611584" len="192"/>
        <bbtco muted="0" usestyle="1" name="" pos="23040" color="4286611584" len="192"/>
        <bbtco muted="0" usestyle="1" name="" pos="23424" color="4286611584" len="192"/>
        <bbtco muted="0" usestyle="1" name="" pos="23808" color="4286611584" len="192"/>
        <bbtco muted="0" usestyle="1" name="" pos="24192" color="4286611584" len="192"/>
      </track>
      <track muted="0" type="1" name="hat 2" solo="0">
        <bbtrack/>
        <bbtco muted="0" usestyle="1" name="" pos="3264" color="4286611584" len="192"/>
        <bbtco muted="0" usestyle="1" name="" pos="3648" color="4286611584" len="192"/>
        <bbtco muted="0" usestyle="1" name="" pos="4032" color="4286611584" len="192"/>
        <bbtco muted="0" usestyle="1" name="" pos="4416" color="4286611584" len="192"/>
        <bbtco muted="0" usestyle="1" name="" pos="9408" color="4286611584" len="192"/>
        <bbtco muted="0" usestyle="1" name="" pos="9792" color="4286611584" len="192"/>
        <bbtco muted="0" usestyle="1" name="" pos="10176" color="4286611584" len="192"/>
        <bbtco muted="0" usestyle="1" name="" pos="10560" color="4286611584" len="192"/>
        <bbtco muted="0" usestyle="1" name="" pos="12480" color="4286611584" len="192"/>
        <bbtco muted="0" usestyle="1" name="" pos="12864" color="4286611584" len="192"/>
        <bbtco muted="0" usestyle="1" name="" pos="13248" color="4286611584" len="192"/>
        <bbtco muted="0" usestyle="1" name="" pos="13632" color="4286611584" len="192"/>
        <bbtco muted="0" usestyle="1" name="" pos="17088" color="4286611584" len="192"/>
        <bbtco muted="0" usestyle="1" name="" pos="17472" color="4286611584" len="192"/>
        <bbtco muted="0" usestyle="1" name="" pos="17856" color="4286611584" len="192"/>
        <bbtco muted="0" usestyle="1" name="" pos="18240" color="4286611584" len="192"/>
        <bbtco muted="0" usestyle="1" name="" pos="23232" color="4286611584" len="192"/>
        <bbtco muted="0" usestyle="1" name="" pos="23616" color="4286611584" len="192"/>
        <bbtco muted="0" usestyle="1" name="" pos="24000" color="4286611584" len="192"/>
        <bbtco muted="0" usestyle="1" name="" pos="24384" color="4286611584" len="192"/>
      </track>
      <track muted="0" type="0" name="4Front Piano Module" solo="0">
        <instrumenttrack pan="0" fxch="4" pitchrange="1" pitch="0" basenote="57" vol="95.5">
          <instrument name="vestige">
            <vestige program="0" guivisible="1" plugin="4Front Piano.dll" chunk="AAAAgA=="/>
          </instrument>
          <eldata fres="0.5" ftype="0" fcut="14000" fwet="0">
            <elvol lspd_denominator="4" sustain="0.5" pdel="0" userwavefile="" dec="0.5" lamt="0" syncmode="0" latt="0" rel="0.1" amt="0" x100="0" att="0" lpdel="0" hold="0.5" lshp="0" lspd="0.1" ctlenvamt="0" lspd_numerator="4"/>
            <elcut lspd_denominator="4" sustain="0.5" pdel="0" userwavefile="" dec="0.5" lamt="0" syncmode="0" latt="0" rel="0.1" amt="0" x100="0" att="0" lpdel="0" hold="0.5" lshp="0" lspd="0.1" ctlenvamt="0" lspd_numerator="4"/>
            <elres lspd_denominator="4" sustain="0.5" pdel="0" userwavefile="" dec="0.5" lamt="0" syncmode="0" latt="0" rel="0.1" amt="0" x100="0" att="0" lpdel="0" hold="0.5" lshp="0" lspd="0.1" ctlenvamt="0" lspd_numerator="4"/>
          </eldata>
          <chordcreator chord="0" chordrange="1" chord-enabled="0"/>
          <arpeggiator arptime="100" arprange="1" arptime_denominator="4" syncmode="0" arpmode="0" arp-enabled="0" arp="0" arptime_numerator="4" arpdir="0" arpgate="100"/>
          <midiport inputcontroller="0" fixedoutputvelocity="-1" inputchannel="0" outputcontroller="0" writable="0" outputchannel="1" fixedinputvelocity="-1" fixedoutputnote="-1" outputprogram="1" basevelocity="63" readable="0"/>
          <fxchain numofeffects="0" enabled="0"/>
        </instrumenttrack>
        <pattern steps="16" muted="0" type="1" name="4Front Piano Module" pos="3072" len="384">
          <note pan="0" key="57" vol="100" pos="0" len="24"/>
          <note pan="0" key="55" vol="100" pos="24" len="24"/>
          <note pan="0" key="62" vol="100" pos="48" len="24"/>
          <note pan="0" key="59" vol="100" pos="72" len="24"/>
          <note pan="0" key="57" vol="100" pos="96" len="24"/>
          <note pan="0" key="55" vol="100" pos="120" len="24"/>
          <note pan="0" key="62" vol="100" pos="144" len="24"/>
          <note pan="0" key="59" vol="100" pos="168" len="24"/>
          <note pan="0" key="57" vol="100" pos="192" len="24"/>
          <note pan="0" key="59" vol="100" pos="216" len="24"/>
          <note pan="0" key="57" vol="100" pos="240" len="24"/>
          <note pan="0" key="55" vol="100" pos="264" len="24"/>
          <note pan="0" key="57" vol="100" pos="288" len="24"/>
          <note pan="0" key="59" vol="100" pos="312" len="24"/>
          <note pan="0" key="57" vol="100" pos="336" len="24"/>
          <note pan="0" key="55" vol="100" pos="360" len="24"/>
        </pattern>
        <pattern steps="16" muted="0" type="1" name="4Front Piano Module" pos="3456" len="384">
          <note pan="0" key="57" vol="100" pos="0" len="24"/>
          <note pan="0" key="55" vol="100" pos="24" len="24"/>
          <note pan="0" key="62" vol="100" pos="48" len="24"/>
          <note pan="0" key="59" vol="100" pos="72" len="24"/>
          <note pan="0" key="57" vol="100" pos="96" len="24"/>
          <note pan="0" key="55" vol="100" pos="120" len="24"/>
          <note pan="0" key="62" vol="100" pos="144" len="24"/>
          <note pan="0" key="59" vol="100" pos="168" len="24"/>
          <note pan="0" key="57" vol="100" pos="192" len="24"/>
          <note pan="0" key="59" vol="100" pos="216" len="24"/>
          <note pan="0" key="57" vol="100" pos="240" len="24"/>
          <note pan="0" key="55" vol="100" pos="264" len="24"/>
          <note pan="0" key="57" vol="100" pos="288" len="24"/>
          <note pan="0" key="59" vol="100" pos="312" len="24"/>
          <note pan="0" key="57" vol="100" pos="336" len="24"/>
          <note pan="0" key="55" vol="100" pos="360" len="24"/>
        </pattern>
        <pattern steps="16" muted="0" type="1" name="4Front Piano Module" pos="3840" len="384">
          <note pan="0" key="57" vol="100" pos="0" len="24"/>
          <note pan="0" key="55" vol="100" pos="24" len="24"/>
          <note pan="0" key="62" vol="100" pos="48" len="24"/>
          <note pan="0" key="59" vol="100" pos="72" len="24"/>
          <note pan="0" key="57" vol="100" pos="96" len="24"/>
          <note pan="0" key="55" vol="100" pos="120" len="24"/>
          <note pan="0" key="62" vol="100" pos="144" len="24"/>
          <note pan="0" key="59" vol="100" pos="168" len="24"/>
          <note pan="0" key="57" vol="100" pos="192" len="24"/>
          <note pan="0" key="59" vol="100" pos="216" len="24"/>
          <note pan="0" key="57" vol="100" pos="240" len="24"/>
          <note pan="0" key="55" vol="100" pos="264" len="24"/>
          <note pan="0" key="57" vol="100" pos="288" len="24"/>
          <note pan="0" key="59" vol="100" pos="312" len="24"/>
          <note pan="0" key="57" vol="100" pos="336" len="24"/>
          <note pan="0" key="55" vol="100" pos="360" len="24"/>
        </pattern>
        <pattern steps="16" muted="0" type="1" name="4Front Piano Module" pos="4224" len="384">
          <note pan="0" key="57" vol="100" pos="0" len="24"/>
          <note pan="0" key="55" vol="100" pos="24" len="24"/>
          <note pan="0" key="62" vol="100" pos="48" len="24"/>
          <note pan="0" key="59" vol="100" pos="72" len="24"/>
          <note pan="0" key="57" vol="100" pos="96" len="24"/>
          <note pan="0" key="55" vol="100" pos="120" len="24"/>
          <note pan="0" key="62" vol="100" pos="144" len="24"/>
          <note pan="0" key="59" vol="100" pos="168" len="24"/>
          <note pan="0" key="57" vol="100" pos="192" len="24"/>
          <note pan="0" key="59" vol="100" pos="216" len="24"/>
          <note pan="0" key="57" vol="100" pos="240" len="24"/>
          <note pan="0" key="55" vol="100" pos="264" len="24"/>
        </pattern>
        <pattern steps="16" muted="0" type="1" name="4Front Piano Module" pos="4608" len="384">
          <note pan="0" key="57" vol="100" pos="0" len="24"/>
          <note pan="0" key="55" vol="100" pos="24" len="24"/>
          <note pan="0" key="62" vol="100" pos="48" len="24"/>
          <note pan="0" key="59" vol="100" pos="72" len="24"/>
          <note pan="0" key="57" vol="100" pos="96" len="24"/>
          <note pan="0" key="55" vol="100" pos="120" len="24"/>
          <note pan="0" key="62" vol="100" pos="144" len="24"/>
          <note pan="0" key="59" vol="100" pos="168" len="24"/>
          <note pan="0" key="57" vol="100" pos="192" len="24"/>
          <note pan="0" key="59" vol="100" pos="216" len="24"/>
          <note pan="0" key="57" vol="100" pos="240" len="24"/>
          <note pan="0" key="55" vol="100" pos="264" len="24"/>
          <note pan="0" key="57" vol="100" pos="288" len="24"/>
          <note pan="0" key="59" vol="100" pos="312" len="24"/>
          <note pan="0" key="57" vol="100" pos="336" len="24"/>
          <note pan="0" key="55" vol="100" pos="360" len="24"/>
        </pattern>
        <pattern steps="16" muted="0" type="1" name="4Front Piano Module" pos="4992" len="384">
          <note pan="0" key="57" vol="100" pos="0" len="24"/>
          <note pan="0" key="55" vol="100" pos="24" len="24"/>
          <note pan="0" key="62" vol="100" pos="48" len="24"/>
          <note pan="0" key="59" vol="100" pos="72" len="24"/>
          <note pan="0" key="57" vol="100" pos="96" len="24"/>
          <note pan="0" key="55" vol="100" pos="120" len="24"/>
          <note pan="0" key="62" vol="100" pos="144" len="24"/>
          <note pan="0" key="59" vol="100" pos="168" len="24"/>
          <note pan="0" key="57" vol="100" pos="192" len="24"/>
          <note pan="0" key="59" vol="100" pos="216" len="24"/>
          <note pan="0" key="57" vol="100" pos="240" len="24"/>
          <note pan="0" key="55" vol="100" pos="264" len="24"/>
          <note pan="0" key="57" vol="100" pos="288" len="24"/>
          <note pan="0" key="59" vol="100" pos="312" len="24"/>
          <note pan="0" key="57" vol="100" pos="336" len="24"/>
          <note pan="0" key="55" vol="100" pos="360" len="24"/>
        </pattern>
        <pattern steps="16" muted="0" type="1" name="4Front Piano Module" pos="5376" len="384">
          <note pan="0" key="57" vol="100" pos="0" len="24"/>
          <note pan="0" key="55" vol="100" pos="24" len="24"/>
          <note pan="0" key="62" vol="100" pos="48" len="24"/>
          <note pan="0" key="59" vol="100" pos="72" len="24"/>
          <note pan="0" key="57" vol="100" pos="96" len="24"/>
          <note pan="0" key="55" vol="100" pos="120" len="24"/>
          <note pan="0" key="62" vol="100" pos="144" len="24"/>
          <note pan="0" key="59" vol="100" pos="168" len="24"/>
          <note pan="0" key="57" vol="100" pos="192" len="24"/>
          <note pan="0" key="59" vol="100" pos="216" len="24"/>
          <note pan="0" key="57" vol="100" pos="240" len="24"/>
          <note pan="0" key="55" vol="100" pos="264" len="24"/>
          <note pan="0" key="57" vol="100" pos="288" len="24"/>
          <note pan="0" key="59" vol="100" pos="312" len="24"/>
          <note pan="0" key="57" vol="100" pos="336" len="24"/>
          <note pan="0" key="55" vol="100" pos="360" len="24"/>
        </pattern>
        <pattern steps="16" muted="0" type="1" name="4Front Piano Module" pos="5760" len="384">
          <note pan="0" key="57" vol="100" pos="0" len="24"/>
          <note pan="0" key="55" vol="100" pos="24" len="24"/>
          <note pan="0" key="62" vol="100" pos="48" len="24"/>
          <note pan="0" key="59" vol="100" pos="72" len="24"/>
          <note pan="0" key="57" vol="100" pos="96" len="24"/>
          <note pan="0" key="55" vol="100" pos="120" len="24"/>
          <note pan="0" key="62" vol="100" pos="144" len="24"/>
          <note pan="0" key="59" vol="100" pos="168" len="24"/>
          <note pan="0" key="57" vol="100" pos="192" len="24"/>
          <note pan="0" key="59" vol="100" pos="216" len="24"/>
          <note pan="0" key="57" vol="100" pos="240" len="24"/>
          <note pan="0" key="55" vol="100" pos="264" len="24"/>
          <note pan="0" key="57" vol="100" pos="288" len="24"/>
          <note pan="0" key="59" vol="100" pos="312" len="24"/>
          <note pan="0" key="57" vol="100" pos="336" len="24"/>
          <note pan="0" key="55" vol="100" pos="360" len="24"/>
        </pattern>
        <pattern steps="16" muted="0" type="1" name="4Front Piano Module" pos="6144" len="384">
          <note pan="0" key="57" vol="100" pos="0" len="24"/>
          <note pan="0" key="55" vol="100" pos="24" len="24"/>
          <note pan="0" key="62" vol="100" pos="48" len="24"/>
          <note pan="0" key="59" vol="100" pos="72" len="24"/>
          <note pan="0" key="57" vol="100" pos="96" len="24"/>
          <note pan="0" key="55" vol="100" pos="120" len="24"/>
          <note pan="0" key="62" vol="100" pos="144" len="24"/>
          <note pan="0" key="59" vol="100" pos="168" len="24"/>
          <note pan="0" key="57" vol="100" pos="192" len="24"/>
          <note pan="0" key="59" vol="100" pos="216" len="24"/>
          <note pan="0" key="57" vol="100" pos="240" len="24"/>
          <note pan="0" key="55" vol="100" pos="264" len="24"/>
          <note pan="0" key="57" vol="100" pos="288" len="24"/>
          <note pan="0" key="59" vol="100" pos="312" len="24"/>
          <note pan="0" key="57" vol="100" pos="336" len="24"/>
          <note pan="0" key="55" vol="100" pos="360" len="24"/>
        </pattern>
        <pattern steps="16" muted="0" type="1" name="4Front Piano Module" pos="6528" len="384">
          <note pan="0" key="57" vol="100" pos="0" len="24"/>
          <note pan="0" key="55" vol="100" pos="24" len="24"/>
          <note pan="0" key="62" vol="100" pos="48" len="24"/>
          <note pan="0" key="59" vol="100" pos="72" len="24"/>
          <note pan="0" key="57" vol="100" pos="96" len="24"/>
          <note pan="0" key="55" vol="100" pos="120" len="24"/>
          <note pan="0" key="62" vol="100" pos="144" len="24"/>
          <note pan="0" key="59" vol="100" pos="168" len="24"/>
          <note pan="0" key="57" vol="100" pos="192" len="24"/>
          <note pan="0" key="59" vol="100" pos="216" len="24"/>
          <note pan="0" key="57" vol="100" pos="240" len="24"/>
          <note pan="0" key="55" vol="100" pos="264" len="24"/>
          <note pan="0" key="57" vol="100" pos="288" len="24"/>
          <note pan="0" key="59" vol="100" pos="312" len="24"/>
          <note pan="0" key="57" vol="100" pos="336" len="24"/>
          <note pan="0" key="55" vol="100" pos="360" len="24"/>
        </pattern>
        <pattern steps="16" muted="0" type="1" name="4Front Piano Module" pos="6912" len="384">
          <note pan="0" key="57" vol="100" pos="0" len="24"/>
          <note pan="0" key="55" vol="100" pos="24" len="24"/>
          <note pan="0" key="62" vol="100" pos="48" len="24"/>
          <note pan="0" key="59" vol="100" pos="72" len="24"/>
          <note pan="0" key="57" vol="100" pos="96" len="24"/>
          <note pan="0" key="55" vol="100" pos="120" len="24"/>
          <note pan="0" key="62" vol="100" pos="144" len="24"/>
          <note pan="0" key="59" vol="100" pos="168" len="24"/>
          <note pan="0" key="57" vol="100" pos="192" len="24"/>
          <note pan="0" key="59" vol="100" pos="216" len="24"/>
          <note pan="0" key="57" vol="100" pos="240" len="24"/>
          <note pan="0" key="55" vol="100" pos="264" len="24"/>
          <note pan="0" key="57" vol="100" pos="288" len="24"/>
          <note pan="0" key="59" vol="100" pos="312" len="24"/>
          <note pan="0" key="57" vol="100" pos="336" len="24"/>
          <note pan="0" key="55" vol="100" pos="360" len="24"/>
        </pattern>
        <pattern steps="16" muted="0" type="1" name="4Front Piano Module" pos="7296" len="384">
          <note pan="0" key="57" vol="100" pos="0" len="24"/>
          <note pan="0" key="55" vol="100" pos="24" len="24"/>
          <note pan="0" key="62" vol="100" pos="48" len="24"/>
          <note pan="0" key="59" vol="100" pos="72" len="24"/>
          <note pan="0" key="57" vol="100" pos="96" len="24"/>
          <note pan="0" key="55" vol="100" pos="120" len="24"/>
          <note pan="0" key="62" vol="100" pos="144" len="24"/>
          <note pan="0" key="59" vol="100" pos="168" len="24"/>
          <note pan="0" key="57" vol="100" pos="192" len="24"/>
          <note pan="0" key="59" vol="100" pos="216" len="24"/>
          <note pan="0" key="57" vol="100" pos="240" len="24"/>
          <note pan="0" key="55" vol="100" pos="264" len="24"/>
          <note pan="0" key="57" vol="100" pos="288" len="24"/>
          <note pan="0" key="59" vol="100" pos="312" len="24"/>
          <note pan="0" key="57" vol="100" pos="336" len="24"/>
          <note pan="0" key="55" vol="100" pos="360" len="24"/>
        </pattern>
        <pattern steps="16" muted="0" type="1" name="4Front Piano Module" pos="16896" len="384">
          <note pan="0" key="57" vol="100" pos="0" len="24"/>
          <note pan="0" key="55" vol="100" pos="24" len="24"/>
          <note pan="0" key="62" vol="100" pos="48" len="24"/>
          <note pan="0" key="59" vol="100" pos="72" len="24"/>
          <note pan="0" key="57" vol="100" pos="96" len="24"/>
          <note pan="0" key="55" vol="100" pos="120" len="24"/>
          <note pan="0" key="62" vol="100" pos="144" len="24"/>
          <note pan="0" key="59" vol="100" pos="168" len="24"/>
          <note pan="0" key="57" vol="100" pos="192" len="24"/>
          <note pan="0" key="59" vol="100" pos="216" len="24"/>
          <note pan="0" key="57" vol="100" pos="240" len="24"/>
          <note pan="0" key="55" vol="100" pos="264" len="24"/>
          <note pan="0" key="57" vol="100" pos="288" len="24"/>
          <note pan="0" key="59" vol="100" pos="312" len="24"/>
          <note pan="0" key="57" vol="100" pos="336" len="24"/>
          <note pan="0" key="55" vol="100" pos="360" len="24"/>
        </pattern>
        <pattern steps="16" muted="0" type="1" name="4Front Piano Module" pos="17280" len="384">
          <note pan="0" key="57" vol="100" pos="0" len="24"/>
          <note pan="0" key="55" vol="100" pos="24" len="24"/>
          <note pan="0" key="62" vol="100" pos="48" len="24"/>
          <note pan="0" key="59" vol="100" pos="72" len="24"/>
          <note pan="0" key="57" vol="100" pos="96" len="24"/>
          <note pan="0" key="55" vol="100" pos="120" len="24"/>
          <note pan="0" key="62" vol="100" pos="144" len="24"/>
          <note pan="0" key="59" vol="100" pos="168" len="24"/>
          <note pan="0" key="57" vol="100" pos="192" len="24"/>
          <note pan="0" key="59" vol="100" pos="216" len="24"/>
          <note pan="0" key="57" vol="100" pos="240" len="24"/>
          <note pan="0" key="55" vol="100" pos="264" len="24"/>
          <note pan="0" key="57" vol="100" pos="288" len="24"/>
          <note pan="0" key="59" vol="100" pos="312" len="24"/>
          <note pan="0" key="57" vol="100" pos="336" len="24"/>
          <note pan="0" key="55" vol="100" pos="360" len="24"/>
        </pattern>
        <pattern steps="16" muted="0" type="1" name="4Front Piano Module" pos="17664" len="384">
          <note pan="0" key="57" vol="100" pos="0" len="24"/>
          <note pan="0" key="55" vol="100" pos="24" len="24"/>
          <note pan="0" key="62" vol="100" pos="48" len="24"/>
          <note pan="0" key="59" vol="100" pos="72" len="24"/>
          <note pan="0" key="57" vol="100" pos="96" len="24"/>
          <note pan="0" key="55" vol="100" pos="120" len="24"/>
          <note pan="0" key="62" vol="100" pos="144" len="24"/>
          <note pan="0" key="59" vol="100" pos="168" len="24"/>
          <note pan="0" key="57" vol="100" pos="192" len="24"/>
          <note pan="0" key="59" vol="100" pos="216" len="24"/>
          <note pan="0" key="57" vol="100" pos="240" len="24"/>
          <note pan="0" key="55" vol="100" pos="264" len="24"/>
          <note pan="0" key="57" vol="100" pos="288" len="24"/>
          <note pan="0" key="59" vol="100" pos="312" len="24"/>
          <note pan="0" key="57" vol="100" pos="336" len="24"/>
          <note pan="0" key="55" vol="100" pos="360" len="24"/>
        </pattern>
        <pattern steps="16" muted="0" type="1" name="4Front Piano Module" pos="18048" len="384">
          <note pan="0" key="57" vol="100" pos="0" len="24"/>
          <note pan="0" key="55" vol="100" pos="24" len="24"/>
          <note pan="0" key="62" vol="100" pos="48" len="24"/>
          <note pan="0" key="59" vol="100" pos="72" len="24"/>
          <note pan="0" key="57" vol="100" pos="96" len="24"/>
          <note pan="0" key="55" vol="100" pos="120" len="24"/>
          <note pan="0" key="62" vol="100" pos="144" len="24"/>
          <note pan="0" key="59" vol="100" pos="168" len="24"/>
          <note pan="0" key="57" vol="100" pos="192" len="24"/>
          <note pan="0" key="59" vol="100" pos="216" len="24"/>
          <note pan="0" key="57" vol="100" pos="240" len="24"/>
          <note pan="0" key="55" vol="100" pos="264" len="24"/>
        </pattern>
        <pattern steps="16" muted="0" type="1" name="4Front Piano Module" pos="18432" len="384">
          <note pan="0" key="57" vol="100" pos="0" len="24"/>
          <note pan="0" key="55" vol="100" pos="24" len="24"/>
          <note pan="0" key="62" vol="100" pos="48" len="24"/>
          <note pan="0" key="59" vol="100" pos="72" len="24"/>
          <note pan="0" key="57" vol="100" pos="96" len="24"/>
          <note pan="0" key="55" vol="100" pos="120" len="24"/>
          <note pan="0" key="62" vol="100" pos="144" len="24"/>
          <note pan="0" key="59" vol="100" pos="168" len="24"/>
          <note pan="0" key="57" vol="100" pos="192" len="24"/>
          <note pan="0" key="59" vol="100" pos="216" len="24"/>
          <note pan="0" key="57" vol="100" pos="240" len="24"/>
          <note pan="0" key="55" vol="100" pos="264" len="24"/>
          <note pan="0" key="57" vol="100" pos="288" len="24"/>
          <note pan="0" key="59" vol="100" pos="312" len="24"/>
          <note pan="0" key="57" vol="100" pos="336" len="24"/>
          <note pan="0" key="55" vol="100" pos="360" len="24"/>
        </pattern>
        <pattern steps="16" muted="0" type="1" name="4Front Piano Module" pos="18816" len="384">
          <note pan="0" key="57" vol="100" pos="0" len="24"/>
          <note pan="0" key="55" vol="100" pos="24" len="24"/>
          <note pan="0" key="62" vol="100" pos="48" len="24"/>
          <note pan="0" key="59" vol="100" pos="72" len="24"/>
          <note pan="0" key="57" vol="100" pos="96" len="24"/>
          <note pan="0" key="55" vol="100" pos="120" len="24"/>
          <note pan="0" key="62" vol="100" pos="144" len="24"/>
          <note pan="0" key="59" vol="100" pos="168" len="24"/>
          <note pan="0" key="57" vol="100" pos="192" len="24"/>
          <note pan="0" key="59" vol="100" pos="216" len="24"/>
          <note pan="0" key="57" vol="100" pos="240" len="24"/>
          <note pan="0" key="55" vol="100" pos="264" len="24"/>
          <note pan="0" key="57" vol="100" pos="288" len="24"/>
          <note pan="0" key="59" vol="100" pos="312" len="24"/>
          <note pan="0" key="57" vol="100" pos="336" len="24"/>
          <note pan="0" key="55" vol="100" pos="360" len="24"/>
        </pattern>
        <pattern steps="16" muted="0" type="1" name="4Front Piano Module" pos="19200" len="384">
          <note pan="0" key="57" vol="100" pos="0" len="24"/>
          <note pan="0" key="55" vol="100" pos="24" len="24"/>
          <note pan="0" key="62" vol="100" pos="48" len="24"/>
          <note pan="0" key="59" vol="100" pos="72" len="24"/>
          <note pan="0" key="57" vol="100" pos="96" len="24"/>
          <note pan="0" key="55" vol="100" pos="120" len="24"/>
          <note pan="0" key="62" vol="100" pos="144" len="24"/>
          <note pan="0" key="59" vol="100" pos="168" len="24"/>
          <note pan="0" key="57" vol="100" pos="192" len="24"/>
          <note pan="0" key="59" vol="100" pos="216" len="24"/>
          <note pan="0" key="57" vol="100" pos="240" len="24"/>
          <note pan="0" key="55" vol="100" pos="264" len="24"/>
          <note pan="0" key="57" vol="100" pos="288" len="24"/>
          <note pan="0" key="59" vol="100" pos="312" len="24"/>
          <note pan="0" key="57" vol="100" pos="336" len="24"/>
          <note pan="0" key="55" vol="100" pos="360" len="24"/>
        </pattern>
        <pattern steps="16" muted="0" type="1" name="4Front Piano Module" pos="19584" len="384">
          <note pan="0" key="57" vol="100" pos="0" len="24"/>
          <note pan="0" key="55" vol="100" pos="24" len="24"/>
          <note pan="0" key="62" vol="100" pos="48" len="24"/>
          <note pan="0" key="59" vol="100" pos="72" len="24"/>
          <note pan="0" key="57" vol="100" pos="96" len="24"/>
          <note pan="0" key="55" vol="100" pos="120" len="24"/>
          <note pan="0" key="62" vol="100" pos="144" len="24"/>
          <note pan="0" key="59" vol="100" pos="168" len="24"/>
          <note pan="0" key="57" vol="100" pos="192" len="24"/>
          <note pan="0" key="59" vol="100" pos="216" len="24"/>
          <note pan="0" key="57" vol="100" pos="240" len="24"/>
          <note pan="0" key="55" vol="100" pos="264" len="24"/>
          <note pan="0" key="57" vol="100" pos="288" len="24"/>
          <note pan="0" key="59" vol="100" pos="312" len="24"/>
          <note pan="0" key="57" vol="100" pos="336" len="24"/>
          <note pan="0" key="55" vol="100" pos="360" len="24"/>
        </pattern>
        <pattern steps="16" muted="0" type="1" name="4Front Piano Module" pos="19968" len="384">
          <note pan="0" key="57" vol="100" pos="0" len="24"/>
          <note pan="0" key="55" vol="100" pos="24" len="24"/>
          <note pan="0" key="62" vol="100" pos="48" len="24"/>
          <note pan="0" key="59" vol="100" pos="72" len="24"/>
          <note pan="0" key="57" vol="100" pos="96" len="24"/>
          <note pan="0" key="55" vol="100" pos="120" len="24"/>
          <note pan="0" key="62" vol="100" pos="144" len="24"/>
          <note pan="0" key="59" vol="100" pos="168" len="24"/>
          <note pan="0" key="57" vol="100" pos="192" len="24"/>
          <note pan="0" key="59" vol="100" pos="216" len="24"/>
          <note pan="0" key="57" vol="100" pos="240" len="24"/>
          <note pan="0" key="55" vol="100" pos="264" len="24"/>
          <note pan="0" key="57" vol="100" pos="288" len="24"/>
          <note pan="0" key="59" vol="100" pos="312" len="24"/>
          <note pan="0" key="57" vol="100" pos="336" len="24"/>
          <note pan="0" key="55" vol="100" pos="360" len="24"/>
        </pattern>
        <pattern steps="16" muted="0" type="1" name="4Front Piano Module" pos="20352" len="384">
          <note pan="0" key="57" vol="100" pos="0" len="24"/>
          <note pan="0" key="55" vol="100" pos="24" len="24"/>
          <note pan="0" key="62" vol="100" pos="48" len="24"/>
          <note pan="0" key="59" vol="100" pos="72" len="24"/>
          <note pan="0" key="57" vol="100" pos="96" len="24"/>
          <note pan="0" key="55" vol="100" pos="120" len="24"/>
          <note pan="0" key="62" vol="100" pos="144" len="24"/>
          <note pan="0" key="59" vol="100" pos="168" len="24"/>
          <note pan="0" key="57" vol="100" pos="192" len="24"/>
          <note pan="0" key="59" vol="100" pos="216" len="24"/>
          <note pan="0" key="57" vol="100" pos="240" len="24"/>
          <note pan="0" key="55" vol="100" pos="264" len="24"/>
          <note pan="0" key="57" vol="100" pos="288" len="24"/>
          <note pan="0" key="59" vol="100" pos="312" len="24"/>
          <note pan="0" key="57" vol="100" pos="336" len="24"/>
          <note pan="0" key="55" vol="100" pos="360" len="24"/>
        </pattern>
        <pattern steps="16" muted="0" type="1" name="4Front Piano Module" pos="20736" len="384">
          <note pan="0" key="57" vol="100" pos="0" len="24"/>
          <note pan="0" key="55" vol="100" pos="24" len="24"/>
          <note pan="0" key="62" vol="100" pos="48" len="24"/>
          <note pan="0" key="59" vol="100" pos="72" len="24"/>
          <note pan="0" key="57" vol="100" pos="96" len="24"/>
          <note pan="0" key="55" vol="100" pos="120" len="24"/>
          <note pan="0" key="62" vol="100" pos="144" len="24"/>
          <note pan="0" key="59" vol="100" pos="168" len="24"/>
          <note pan="0" key="57" vol="100" pos="192" len="24"/>
          <note pan="0" key="59" vol="100" pos="216" len="24"/>
          <note pan="0" key="57" vol="100" pos="240" len="24"/>
          <note pan="0" key="55" vol="100" pos="264" len="24"/>
          <note pan="0" key="57" vol="100" pos="288" len="24"/>
          <note pan="0" key="59" vol="100" pos="312" len="24"/>
          <note pan="0" key="57" vol="100" pos="336" len="24"/>
          <note pan="0" key="55" vol="100" pos="360" len="24"/>
        </pattern>
        <pattern steps="16" muted="0" type="1" name="4Front Piano Module" pos="21120" len="384">
          <note pan="0" key="57" vol="100" pos="0" len="24"/>
          <note pan="0" key="55" vol="100" pos="24" len="24"/>
          <note pan="0" key="62" vol="100" pos="48" len="24"/>
          <note pan="0" key="59" vol="100" pos="72" len="24"/>
          <note pan="0" key="57" vol="100" pos="96" len="24"/>
          <note pan="0" key="55" vol="100" pos="120" len="24"/>
          <note pan="0" key="62" vol="100" pos="144" len="24"/>
          <note pan="0" key="59" vol="100" pos="168" len="24"/>
          <note pan="0" key="57" vol="100" pos="192" len="24"/>
          <note pan="0" key="59" vol="100" pos="216" len="24"/>
          <note pan="0" key="57" vol="100" pos="240" len="24"/>
          <note pan="0" key="55" vol="100" pos="264" len="24"/>
          <note pan="0" key="57" vol="100" pos="288" len="24"/>
          <note pan="0" key="59" vol="100" pos="312" len="24"/>
          <note pan="0" key="57" vol="100" pos="336" len="24"/>
          <note pan="0" key="55" vol="100" pos="360" len="24"/>
        </pattern>
      </track>
      <track muted="0" type="1" name="hat veloce" solo="0">
        <bbtrack/>
        <bbtco muted="0" usestyle="1" name="" pos="4608" color="4286611584" len="192"/>
        <bbtco muted="0" usestyle="1" name="" pos="4800" color="4286611584" len="192"/>
        <bbtco muted="0" usestyle="1" name="" pos="4992" color="4286611584" len="192"/>
        <bbtco muted="0" usestyle="1" name="" pos="5184" color="4286611584" len="192"/>
        <bbtco muted="0" usestyle="1" name="" pos="5376" color="4286611584" len="192"/>
        <bbtco muted="0" usestyle="1" name="" pos="5568" color="4286611584" len="192"/>
        <bbtco muted="0" usestyle="1" name="" pos="5760" color="4286611584" len="192"/>
        <bbtco muted="0" usestyle="1" name="" pos="6144" color="4286611584" len="192"/>
        <bbtco muted="0" usestyle="1" name="" pos="6336" color="4286611584" len="192"/>
        <bbtco muted="0" usestyle="1" name="" pos="6528" color="4286611584" len="192"/>
        <bbtco muted="0" usestyle="1" name="" pos="6720" color="4286611584" len="192"/>
        <bbtco muted="0" usestyle="1" name="" pos="6912" color="4286611584" len="192"/>
        <bbtco muted="0" usestyle="1" name="" pos="7104" color="4286611584" len="192"/>
        <bbtco muted="0" usestyle="1" name="" pos="7296" color="4286611584" len="192"/>
        <bbtco muted="0" usestyle="1" name="" pos="7488" color="4286611584" len="192"/>
        <bbtco muted="0" usestyle="1" name="" pos="18432" color="4286611584" len="192"/>
        <bbtco muted="0" usestyle="1" name="" pos="18624" color="4286611584" len="192"/>
        <bbtco muted="0" usestyle="1" name="" pos="18816" color="4286611584" len="192"/>
        <bbtco muted="0" usestyle="1" name="" pos="19008" color="4286611584" len="192"/>
        <bbtco muted="0" usestyle="1" name="" pos="19200" color="4286611584" len="192"/>
        <bbtco muted="0" usestyle="1" name="" pos="19392" color="4286611584" len="192"/>
        <bbtco muted="0" usestyle="1" name="" pos="19584" color="4286611584" len="192"/>
        <bbtco muted="0" usestyle="1" name="" pos="19968" color="4286611584" len="192"/>
        <bbtco muted="0" usestyle="1" name="" pos="20160" color="4286611584" len="192"/>
        <bbtco muted="0" usestyle="1" name="" pos="20352" color="4286611584" len="192"/>
        <bbtco muted="0" usestyle="1" name="" pos="20544" color="4286611584" len="192"/>
        <bbtco muted="0" usestyle="1" name="" pos="20736" color="4286611584" len="192"/>
        <bbtco muted="0" usestyle="1" name="" pos="20928" color="4286611584" len="192"/>
        <bbtco muted="0" usestyle="1" name="" pos="21120" color="4286611584" len="192"/>
        <bbtco muted="0" usestyle="1" name="" pos="21312" color="4286611584" len="192"/>
      </track>
      <track muted="0" type="1" name="hat finale" solo="0">
        <bbtrack/>
        <bbtco muted="0" usestyle="1" name="" pos="5952" color="4286611584" len="192"/>
        <bbtco muted="0" usestyle="1" name="" pos="19776" color="4286611584" len="192"/>
      </track>
      <track muted="0" type="0" name="Monstro" solo="0">
        <instrumenttrack pan="0" fxch="5" pitchrange="1" pitch="0" basenote="57" vol="100">
          <instrument name="monstro">
            <monstro o1pw="82.66" v1e2="0" e2sus="1" l1att_numerator="4" e2rel="0" l1wav="0" e2dec_denominator="4" s3e1="0" o3vol="84.5" s3e2="0" w1l1="0" o2spo="0" w1l2="0" o2crs="0" o1ssf="0" o1pan="0" p3l1="0" o2wav="0" p3l2="0" l2rat_denominator="4" o2ftl="0" e1dec_numerator="4" e2hol_denominator="4" p2l1="0" p2l2="0" o3wav1="0" o2syn="0" l1phs="0" o3wav2="0" o2ftr="0" o1ssr="0" p1l1="0" p1l2="0" w1e1="0" e2hol_numerator="4" w1e2="0" l1rat="0.1" l1rat_numerator="4" o2synr="0" p3e1="0" p3e2="0" e1att_numerator="4" e1dec_denominator="4" l2wav="0" p2e1="0" p2e2="0" e1dec="0" e1rel_denominator="4" l1att="0" o3spo="-22.3" p1e1="0" o3crs="-24" p1e2="0" e2pre_numerator="4" e1pre="0" o2pan="0" e1hol_denominator="4" syncmode="0" l2att_denominator="4" e1att="0" e1hol="5" o3syn="0" f3l1="0" l2att_numerator="4" l2phs="0" f3l2="0" e2rel_numerator="4" f2l1="0" f2l2="0" e1pre_denominator="4" l2rat="1" e2att_denominator="4" o3synr="0" e2rel_denominator="4" o1vol="56.5" f1l1="0" f1l2="0" e1slo="0" e2dec_numerator="4" e2dec="0" f3e1="0" f3e2="0" l2att="0" f2e1="0" e2pre="0" f2e2="0" o3pan="42.4" o23mo="0" l1att_denominator="4" f1e1="0" e2att="0" f1e2="0" e2hol="0" e1sus="1" e2pre_denominator="4" v3l1="0" v3l2="0" e2att_numerator="4" e1rel="0" e1att_denominator="4" v2l1="0" v2l2="0" l2rat_numerator="4" e1hol_numerator="4" o2vol="62.1" v1l1="0" o1spo="0" v1l2="0" o1crs="0" e1pre_numerator="4" e2slo="0" o3sub="-21.8" v3e1="0" v3e2="0" o1ftl="0" v2e1="0" v2e2="0" s3l1="0" o1ftr="0" s3l2="0" l1rat_denominator="4" e1rel_numerator="4" v1e1="0"/>
          </instrument>
          <eldata fres="0.5" ftype="0" fcut="14000" fwet="0">
            <elvol lspd_denominator="4" sustain="0.416" pdel="0" userwavefile="" dec="0.953" lamt="0" syncmode="0" latt="0" rel="0.433" amt="1" x100="0" att="0.081" lpdel="0" hold="0.982" lshp="0" lspd="0.1" ctlenvamt="0" lspd_numerator="4"/>
            <elcut lspd_denominator="4" sustain="0.5" pdel="0" userwavefile="" dec="0.5" lamt="0" syncmode="0" latt="0" rel="0.1" amt="0" x100="0" att="0" lpdel="0" hold="0.5" lshp="0" lspd="0.1" ctlenvamt="0" lspd_numerator="4"/>
            <elres lspd_denominator="4" sustain="0.5" pdel="0" userwavefile="" dec="0.5" lamt="0" syncmode="0" latt="0" rel="0.1" amt="0" x100="0" att="0" lpdel="0" hold="0.5" lshp="0" lspd="0.1" ctlenvamt="0" lspd_numerator="4"/>
          </eldata>
          <chordcreator chord="0" chordrange="1" chord-enabled="0"/>
          <arpeggiator arptime="100" arprange="1" arptime_denominator="4" syncmode="0" arpmode="0" arp-enabled="0" arp="0" arptime_numerator="4" arpdir="0" arpgate="100"/>
          <midiport inputcontroller="0" fixedoutputvelocity="-1" inputchannel="0" outputcontroller="0" writable="0" outputchannel="1" fixedinputvelocity="-1" fixedoutputnote="-1" outputprogram="1" basevelocity="63" readable="0"/>
          <fxchain numofeffects="0" enabled="0"/>
        </instrumenttrack>
        <pattern steps="16" muted="0" type="1" name="Monstro" pos="4608" len="192">
          <note pan="0" key="74" vol="100" pos="0" len="192"/>
        </pattern>
        <pattern steps="16" muted="0" type="1" name="Monstro" pos="4992" len="384">
          <note pan="0" key="74" vol="100" pos="0" len="72"/>
          <note pan="0" key="71" vol="100" pos="72" len="312"/>
        </pattern>
        <pattern steps="16" muted="0" type="1" name="Monstro" pos="5376" len="192">
          <note pan="0" key="74" vol="100" pos="0" len="192"/>
        </pattern>
        <pattern steps="16" muted="0" type="1" name="Monstro" pos="5760" len="384">
          <note pan="0" key="74" vol="100" pos="0" len="72"/>
          <note pan="0" key="71" vol="100" pos="72" len="312"/>
        </pattern>
        <pattern steps="16" muted="0" type="1" name="Monstro" pos="6144" len="192">
          <note pan="0" key="74" vol="100" pos="0" len="192"/>
        </pattern>
        <pattern steps="16" muted="0" type="1" name="Monstro" pos="6528" len="384">
          <note pan="0" key="74" vol="100" pos="0" len="72"/>
          <note pan="0" key="71" vol="100" pos="72" len="312"/>
        </pattern>
        <pattern steps="16" muted="0" type="1" name="Monstro" pos="6912" len="192">
          <note pan="0" key="74" vol="100" pos="0" len="192"/>
        </pattern>
        <pattern steps="16" muted="0" type="1" name="Monstro" pos="7296" len="384">
          <note pan="0" key="74" vol="100" pos="0" len="72"/>
          <note pan="0" key="71" vol="100" pos="72" len="312"/>
        </pattern>
        <pattern steps="16" muted="0" type="1" name="Monstro" pos="18432" len="192">
          <note pan="0" key="74" vol="100" pos="0" len="192"/>
        </pattern>
        <pattern steps="16" muted="0" type="1" name="Monstro" pos="18816" len="384">
          <note pan="0" key="74" vol="100" pos="0" len="72"/>
          <note pan="0" key="71" vol="100" pos="72" len="312"/>
        </pattern>
        <pattern steps="16" muted="0" type="1" name="Monstro" pos="19968" len="192">
          <note pan="0" key="74" vol="100" pos="0" len="192"/>
        </pattern>
        <pattern steps="16" muted="0" type="1" name="Monstro" pos="19200" len="192">
          <note pan="0" key="74" vol="100" pos="0" len="192"/>
        </pattern>
        <pattern steps="16" muted="0" type="1" name="Monstro" pos="19584" len="384">
          <note pan="0" key="74" vol="100" pos="0" len="72"/>
          <note pan="0" key="71" vol="100" pos="72" len="312"/>
        </pattern>
        <pattern steps="16" muted="0" type="1" name="Monstro" pos="20352" len="384">
          <note pan="0" key="74" vol="100" pos="0" len="72"/>
          <note pan="0" key="71" vol="100" pos="72" len="312"/>
        </pattern>
        <pattern steps="16" muted="0" type="1" name="Monstro" pos="20736" len="192">
          <note pan="0" key="74" vol="100" pos="0" len="192"/>
        </pattern>
        <pattern steps="16" muted="0" type="1" name="Monstro" pos="21120" len="384">
          <note pan="0" key="74" vol="100" pos="0" len="72"/>
          <note pan="0" key="71" vol="100" pos="72" len="312"/>
        </pattern>
      </track>
      <track muted="0" type="1" name="kick impazzito finale" solo="0">
        <bbtrack/>
        <bbtco muted="0" usestyle="1" name="" pos="13632" color="4286611584" len="192"/>
      </track>
      <track muted="0" type="5" name="volume" solo="0">
        <automationtrack/>
        <automationpattern tens="1" mute="0" prog="0" name="Master volume" pos="0" len="768">
          <time value="100" pos="0"/>
          <object id="5950724"/>
        </automationpattern>
        <automationpattern tens="1" mute="0" prog="2" name="Master volume" pos="23808" len="768">
          <time value="100" pos="0"/>
          <time value="6" pos="768"/>
          <object id="5950724"/>
        </automationpattern>
      </track>
    </trackcontainer>
    <track muted="0" type="6" name="Automation track" solo="0">
      <automationtrack/>
      <automationpattern tens="1" mute="0" prog="0" name="Numerator" pos="0" len="192"/>
      <automationpattern tens="1" mute="0" prog="0" name="Denominator" pos="0" len="192"/>
      <automationpattern tens="1" mute="0" prog="0" name="Tempo" pos="0" len="192"/>
      <automationpattern tens="1" mute="0" prog="0" name="Master volume" pos="0" len="192"/>
      <automationpattern tens="1" mute="0" prog="0" name="Master pitch" pos="0" len="192"/>
    </track>
    <fxmixer width="561" x="207" y="197" maximized="0" height="349" visible="0" minimized="0">
      <fxchannel num="0" muted="0" volume="1" name="Master">
        <fxchain numofeffects="0" enabled="0"/>
      </fxchannel>
      <fxchannel num="1" muted="0" volume="1.79" name="FX 1">
        <fxchain numofeffects="1" enabled="1">
          <effect autoquit_numerator="4" autoquit_denominator="4" syncmode="0" autoquit="1" gate="0" name="ladspaeffect" wet="1" on="1">
            <ladspacontrols link="1" ports="20">
              <port01 link="1" data="10.44"/>
              <port02 link="1" data="-3.6"/>
              <port03 link="1" data="-7.47"/>
              <port04 link="1" data="6.39"/>
              <port05 link="1" data="2.79"/>
              <port06 link="1" data="-0.18"/>
              <port07 link="1" data="12.6"/>
              <port08 link="1" data="-25.29"/>
              <port09 link="1" data="-9.09"/>
              <port010 link="1" data="-10.71"/>
              <port11 data="10.44"/>
              <port12 data="-3.6"/>
              <port13 data="-7.47"/>
              <port14 data="6.39"/>
              <port15 data="2.79"/>
              <port16 data="-0.18"/>
              <port17 data="12.6"/>
              <port18 data="-25.29"/>
              <port19 data="-9.09"/>
              <port110 data="-10.71"/>
            </ladspacontrols>
            <key>
              <attribute value="caps" name="file"/>
              <attribute value="Eq" name="plugin"/>
            </key>
          </effect>
        </fxchain>
        <send channel="0" amount="1"/>
      </fxchannel>
      <fxchannel num="2" muted="0" volume="2" name="FX 2">
        <fxchain numofeffects="1" enabled="1">
          <effect autoquit_numerator="4" autoquit_denominator="4" syncmode="0" autoquit="1" gate="0" name="ladspaeffect" wet="1" on="1">
            <ladspacontrols link="1" ports="20">
              <port01 link="1" data="14.58"/>
              <port02 link="1" data="15.66"/>
              <port03 link="1" data="9.99"/>
              <port04 link="1" data="8.64"/>
              <port05 link="1" data="9.54"/>
              <port06 link="1" data="10.53"/>
              <port07 link="1" data="-22.95"/>
              <port08 link="1" data="-11.79"/>
              <port09 link="1" data="-8.64"/>
              <port010 link="1" data="-0.54"/>
              <port11 data="14.58"/>
              <port12 data="15.66"/>
              <port13 data="9.99"/>
              <port14 data="8.64"/>
              <port15 data="9.54"/>
              <port16 data="10.53"/>
              <port17 data="-22.95"/>
              <port18 data="-11.79"/>
              <port19 data="-8.64"/>
              <port110 data="-0.54"/>
            </ladspacontrols>
            <key>
              <attribute value="caps" name="file"/>
              <attribute value="Eq" name="plugin"/>
            </key>
          </effect>
        </fxchain>
        <send channel="0" amount="1"/>
      </fxchannel>
      <fxchannel num="3" muted="0" volume="1.04" name="FX 3">
        <fxchain numofeffects="1" enabled="1">
          <effect autoquit_numerator="4" autoquit_denominator="4" syncmode="0" autoquit="1" gate="0" name="ladspaeffect" wet="1" on="1">
            <ladspacontrols link="1" ports="20">
              <port01 link="1" data="-0.99"/>
              <port02 link="1" data="12.96"/>
              <port03 link="1" data="-8.91"/>
              <port04 link="1" data="-11.61"/>
              <port05 link="1" data="-37.98"/>
              <port06 link="1" data="-34.11"/>
              <port07 link="1" data="-37.71"/>
              <port08 link="1" data="-1.35"/>
              <port09 link="1" data="3.33"/>
              <port010 link="1" data="1.98"/>
              <port11 data="-0.99"/>
              <port12 data="12.96"/>
              <port13 data="-8.91"/>
              <port14 data="-11.61"/>
              <port15 data="-37.98"/>
              <port16 data="-34.11"/>
              <port17 data="-37.71"/>
              <port18 data="-1.35"/>
              <port19 data="3.33"/>
              <port110 data="1.98"/>
            </ladspacontrols>
            <key>
              <attribute value="caps" name="file"/>
              <attribute value="Eq" name="plugin"/>
            </key>
          </effect>
        </fxchain>
        <send channel="0" amount="1"/>
      </fxchannel>
      <fxchannel num="4" muted="0" volume="1.58" name="FX 4">
        <fxchain numofeffects="1" enabled="1">
          <effect autoquit_numerator="4" autoquit_denominator="4" syncmode="0" autoquit="1" gate="0" name="ladspaeffect" wet="1" on="1">
            <ladspacontrols link="1" ports="20">
              <port01 link="1" data="12.51"/>
              <port02 link="1" data="10.53"/>
              <port03 link="1" data="12.78"/>
              <port04 link="1" data="-0.9"/>
              <port05 link="1" data="-4.86"/>
              <port06 link="1" data="16.11"/>
              <port07 link="1" data="16.56"/>
              <port08 link="1" data="15.12"/>
              <port09 link="1" data="14.22"/>
              <port010 link="1" data="10.44"/>
              <port11 data="12.51"/>
              <port12 data="10.53"/>
              <port13 data="12.78"/>
              <port14 data="-0.9"/>
              <port15 data="-4.86"/>
              <port16 data="16.11"/>
              <port17 data="16.56"/>
              <port18 data="15.12"/>
              <port19 data="14.22"/>
              <port110 data="10.44"/>
            </ladspacontrols>
            <key>
              <attribute value="caps" name="file"/>
              <attribute value="Eq" name="plugin"/>
            </key>
          </effect>
        </fxchain>
        <send channel="0" amount="1"/>
      </fxchannel>
      <fxchannel num="5" muted="0" volume="0.58" name="FX 5">
        <fxchain numofeffects="0" enabled="0"/>
        <send channel="0" amount="1"/>
      </fxchannel>
    </fxmixer>
    <ControllerRackView width="258" x="728" y="289" maximized="0" height="154" visible="0" minimized="0"/>
    <pianoroll width="1079" x="0" y="113" maximized="0" height="480" visible="0" minimized="0"/>
    <automationeditor width="870" x="0" y="77" maximized="0" height="480" visible="0" minimized="0"/>
    <projectnotes width="400" x="700" y="10" maximized="0" height="300" visible="0" minimized="0"><![CDATA[<!DOCTYPE HTML PUBLIC "-//W3C//DTD HTML 4.0//EN" "http://www.w3.org/TR/REC-html40/strict.dtd">
<html><head><meta name="qrichtext" content="1" /><style type="text/css">
p, li { white-space: pre-wrap; }
</style></head><body style=" font-family:'Ubuntu'; font-size:11pt; font-weight:400; font-style:normal;">
<p style=" margin-top:0px; margin-bottom:0px; margin-left:0px; margin-right:0px; -qt-block-indent:0; text-indent:0px;"><span style=" color:#e0e0e0;">Put down your project notes here.</span></p></body></html>]]></projectnotes>
    <timeline lp1pos="24576" lp0pos="23808" lpstate="0"/>
    <controllers/>
  </song>
</lmms-project>
